<?xml version="1.0" encoding="UTF-8"?>
<!DOCTYPE svg PUBLIC "-//W3C//DTD SVG 1.1//EN" "http://www.w3.org/Graphics/SVG/1.1/DTD/svg11.dtd">
<svg xmlns="http://www.w3.org/2000/svg" version="1.1" width="512px" height="512px" style="shape-rendering:geometricPrecision; text-rendering:geometricPrecision; image-rendering:optimizeQuality; fill-rule:evenodd; clip-rule:evenodd" xmlns:xlink="http://www.w3.org/1999/xlink">
<g><path style="opacity:1" fill="#60b7ff" d="M 122.5,1.5 C 122.47,2.49722 122.97,3.16389 124,3.5C 129.108,4.70128 133.941,6.36794 138.5,8.5C 138.5,39.8333 138.5,71.1667 138.5,102.5C 131.578,104.481 124.578,106.314 117.5,108C 115.881,108.236 114.881,109.069 114.5,110.5C 104.929,92.9985 98.4287,74.3319 95,54.5C 92.6777,40.9415 94.8444,28.2748 101.5,16.5C 106.5,8.85284 113.5,3.85284 122.5,1.5 Z"/></g>
<g><path style="opacity:0.998" fill="#6f4499" d="M 420.5,0.5 C 420.5,0.833333 420.5,1.16667 420.5,1.5C 420.175,31.5736 420.508,61.5736 421.5,91.5C 411.596,88.5909 403.262,83.2576 396.5,75.5C 395.525,73.2048 394.192,71.2048 392.5,69.5C 392.008,67.1815 391.008,65.1815 389.5,63.5C 387.855,57.2728 386.855,50.9395 386.5,44.5C 388.226,22.3692 399.56,7.70248 420.5,0.5 Z"/></g>
<g><path style="opacity:1" fill="#573d91" d="M 420.5,1.5 C 439.813,6.98333 451.313,19.65 455,39.5C 456.637,60.5607 448.47,76.5607 430.5,87.5C 429.548,89.0453 429.215,90.712 429.5,92.5C 431.415,92.2155 433.081,92.5489 434.5,93.5C 429.99,93.729 425.657,93.0624 421.5,91.5C 420.508,61.5736 420.175,31.5736 420.5,1.5 Z"/></g>
<g><path style="opacity:1" fill="#2594fd" d="M 127.5,-0.5 C 135.5,-0.5 143.5,-0.5 151.5,-0.5C 166.582,2.30542 180.916,7.30542 194.5,14.5C 193.509,21.3134 193.175,28.3134 193.5,35.5C 184.833,30.8333 176.167,26.1667 167.5,21.5C 158.483,15.8268 148.816,11.4935 138.5,8.5C 133.941,6.36794 129.108,4.70128 124,3.5C 122.97,3.16389 122.47,2.49722 122.5,1.5C 124.306,0.975875 125.972,0.309209 127.5,-0.5 Z"/></g>
<g><path style="opacity:1" fill="#262d81" d="M 423.5,-0.5 C 430.167,-0.5 436.833,-0.5 443.5,-0.5C 470.926,7.98108 483.093,26.6478 480,55.5C 473.78,78.8868 458.614,91.5535 434.5,93.5C 433.081,92.5489 431.415,92.2155 429.5,92.5C 429.215,90.712 429.548,89.0453 430.5,87.5C 448.47,76.5607 456.637,60.5607 455,39.5C 451.313,19.65 439.813,6.98333 420.5,1.5C 420.5,1.16667 420.5,0.833333 420.5,0.5C 421.791,0.737305 422.791,0.403972 423.5,-0.5 Z"/></g>
<g><path style="opacity:1" fill="#56b1fe" d="M 138.5,8.5 C 148.816,11.4935 158.483,15.8268 167.5,21.5C 167.5,46.1667 167.5,70.8333 167.5,95.5C 157.849,97.9629 148.183,100.296 138.5,102.5C 138.5,71.1667 138.5,39.8333 138.5,8.5 Z"/></g>
<g><path style="opacity:1" fill="#4cacfe" d="M 167.5,21.5 C 176.167,26.1667 184.833,30.8333 193.5,35.5C 193.833,36.5 194.5,37.1667 195.5,37.5C 195.5,54.1667 195.5,70.8333 195.5,87.5C 187.669,90.1277 179.669,92.461 171.5,94.5C 170.167,94.8333 168.833,95.1667 167.5,95.5C 167.5,70.8333 167.5,46.1667 167.5,21.5 Z"/></g>
<g><path style="opacity:0.985" fill="#e8f4ff" d="M 101.5,16.5 C 94.8444,28.2748 92.6777,40.9415 95,54.5C 98.4287,74.3319 104.929,92.9985 114.5,110.5C 114.5,110.833 114.5,111.167 114.5,111.5C 114.667,178.834 114.5,246.167 114,313.5C 111.597,311.695 109.93,309.362 109,306.5C 108.617,307.056 108.117,307.389 107.5,307.5C 81.3692,272.223 64.2025,232.89 56,189.5C 46.3314,137.833 54.3314,89.1667 80,43.5C 86.224,33.7013 93.3907,24.7013 101.5,16.5 Z"/></g>
<g><path style="opacity:1" fill="#168afb" d="M 194.5,14.5 C 226.687,29.7483 256.353,48.7483 283.5,71.5C 280.368,72.36 277.368,73.36 274.5,74.5C 245.548,81.9879 216.548,89.3213 187.5,96.5C 182.167,97.8333 176.833,99.1667 171.5,100.5C 171.5,98.5 171.5,96.5 171.5,94.5C 179.669,92.461 187.669,90.1277 195.5,87.5C 212.513,83.497 229.513,79.3303 246.5,75C 230.181,61.514 213.181,49.014 195.5,37.5C 194.5,37.1667 193.833,36.5 193.5,35.5C 193.175,28.3134 193.509,21.3134 194.5,14.5 Z"/></g>
<g><path style="opacity:0.983" fill="#f9b51f" d="M 386.5,44.5 C 386.855,50.9395 387.855,57.2728 389.5,63.5C 379.482,67.258 369.149,70.258 358.5,72.5C 358.5,65.8333 358.5,59.1667 358.5,52.5C 367.751,49.8511 377.084,47.1845 386.5,44.5 Z"/></g>
<g><path style="opacity:1" fill="#3da3fd" d="M 195.5,37.5 C 213.181,49.014 230.181,61.514 246.5,75C 229.513,79.3303 212.513,83.497 195.5,87.5C 195.5,70.8333 195.5,54.1667 195.5,37.5 Z"/></g>
<g><path style="opacity:0.986" fill="#f7c214" d="M 358.5,52.5 C 358.5,59.1667 358.5,65.8333 358.5,72.5C 354.603,73.0552 350.937,74.0552 347.5,75.5C 341.501,76.8323 335.501,78.1656 329.5,79.5C 329.793,72.7446 329.46,66.0779 328.5,59.5C 338.506,57.165 348.506,54.8316 358.5,52.5 Z"/></g>
<g><path style="opacity:0.99" fill="#f3d30c" d="M 328.5,59.5 C 329.46,66.0779 329.793,72.7446 329.5,79.5C 324.817,80.8368 320.15,82.1702 315.5,83.5C 303.24,86.8153 290.906,89.982 278.5,93C 277.565,95.3806 277.232,97.8806 277.5,100.5C 277.167,100.5 276.833,100.5 276.5,100.5C 268.284,102.971 259.951,104.971 251.5,106.5C 249.234,104.807 248.9,102.64 250.5,100C 258.672,97.4655 267.005,95.6322 275.5,94.5C 274.676,87.4944 274.343,80.8277 274.5,74.5C 277.368,73.36 280.368,72.36 283.5,71.5C 298.543,67.6558 313.543,63.6558 328.5,59.5 Z"/></g>
<g><path style="opacity:1" fill="#fca030" d="M 389.5,63.5 C 391.008,65.1815 392.008,67.1815 392.5,69.5C 390.999,70.7515 389.332,71.7515 387.5,72.5C 375.208,75.6562 362.875,78.6562 350.5,81.5C 349.5,81.5 348.5,81.5 347.5,81.5C 347.5,79.5 347.5,77.5 347.5,75.5C 350.937,74.0552 354.603,73.0552 358.5,72.5C 369.149,70.258 379.482,67.258 389.5,63.5 Z"/></g>
<g><path style="opacity:0.996" fill="#fd9837" d="M 396.5,75.5 C 403.262,83.2576 411.596,88.5909 421.5,91.5C 425.657,93.0624 429.99,93.729 434.5,93.5C 426.243,127.937 417.576,162.27 408.5,196.5C 404.668,210.015 401.001,223.682 397.5,237.5C 388.167,273.5 378.833,309.5 369.5,345.5C 368.833,313.167 368.167,280.833 367.5,248.5C 374.479,222.585 381.146,196.585 387.5,170.5C 394.333,144.501 400.833,118.501 407,92.5C 394.965,104.702 382.798,116.702 370.5,128.5C 368.532,120.567 367.865,112.234 368.5,103.5C 377.5,93.8333 386.833,84.5 396.5,75.5 Z"/></g>
<g><path style="opacity:0.999" fill="#fab023" d="M 347.5,75.5 C 347.5,77.5 347.5,79.5 347.5,81.5C 348.5,81.5 349.5,81.5 350.5,81.5C 340.093,84.7683 329.427,87.435 318.5,89.5C 317.5,89.5 316.5,89.5 315.5,89.5C 315.5,87.5 315.5,85.5 315.5,83.5C 320.15,82.1702 324.817,80.8368 329.5,79.5C 335.501,78.1656 341.501,76.8323 347.5,75.5 Z"/></g>
<g><path style="opacity:0.976" fill="#f9b520" d="M 392.5,69.5 C 394.192,71.2048 395.525,73.2048 396.5,75.5C 386.833,84.5 377.5,93.8333 368.5,103.5C 365.167,106.5 361.833,109.5 358.5,112.5C 359.036,109.302 358.369,106.635 356.5,104.5C 366.833,93.8333 377.167,83.1667 387.5,72.5C 389.332,71.7515 390.999,70.7515 392.5,69.5 Z"/></g>
<g><path style="opacity:1" fill="#f5e026" d="M 274.5,74.5 C 274.343,80.8277 274.676,87.4944 275.5,94.5C 267.005,95.6322 258.672,97.4655 250.5,100C 248.9,102.64 249.234,104.807 251.5,106.5C 249.972,107.309 248.306,107.976 246.5,108.5C 235.839,111.165 225.172,113.832 214.5,116.5C 204.484,119.17 194.484,121.837 184.5,124.5C 178.5,125.833 172.5,127.167 166.5,128.5C 164.656,126.721 163.99,124.388 164.5,121.5C 172.335,120.667 179.835,118.667 187,115.5C 187.5,109.175 187.666,102.842 187.5,96.5C 216.548,89.3213 245.548,81.9879 274.5,74.5 Z"/></g>
<g><path style="opacity:1" fill="#f4c01c" d="M 315.5,83.5 C 315.5,85.5 315.5,87.5 315.5,89.5C 316.5,89.5 317.5,89.5 318.5,89.5C 315.746,90.9459 312.746,91.9459 309.5,92.5C 298.74,94.8567 288.073,97.5234 277.5,100.5C 277.232,97.8806 277.565,95.3806 278.5,93C 290.906,89.982 303.24,86.8153 315.5,83.5 Z"/></g>
<g><path style="opacity:1" fill="#067ef6" d="M 309.5,92.5 C 319.775,101.438 329.775,110.772 339.5,120.5C 339.631,121.239 339.464,121.906 339,122.5C 324.631,136.701 310.465,151.035 296.5,165.5C 284.833,176.833 273.167,188.167 261.5,199.5C 260.508,192.018 260.175,184.352 260.5,176.5C 266.829,170.004 272.995,163.337 279,156.5C 289.629,137.254 288.796,118.587 276.5,100.5C 276.833,100.5 277.167,100.5 277.5,100.5C 288.073,97.5234 298.74,94.8567 309.5,92.5 Z"/></g>
<g><path style="opacity:1" fill="#3399fa" d="M 171.5,94.5 C 171.5,96.5 171.5,98.5 171.5,100.5C 153.587,105.146 135.587,109.812 117.5,114.5C 116.272,113.694 115.272,112.694 114.5,111.5C 114.5,111.167 114.5,110.833 114.5,110.5C 114.881,109.069 115.881,108.236 117.5,108C 124.578,106.314 131.578,104.481 138.5,102.5C 148.183,100.296 157.849,97.9629 167.5,95.5C 168.833,95.1667 170.167,94.8333 171.5,94.5 Z"/></g>
<g><path style="opacity:1" fill="#2c99fc" d="M 276.5,100.5 C 288.796,118.587 289.629,137.254 279,156.5C 272.995,163.337 266.829,170.004 260.5,176.5C 255.833,180.833 251.167,185.167 246.5,189.5C 246.5,162.5 246.5,135.5 246.5,108.5C 248.306,107.976 249.972,107.309 251.5,106.5C 259.951,104.971 268.284,102.971 276.5,100.5 Z"/></g>
<g><path style="opacity:1" fill="#e2f1fe" d="M 114.5,111.5 C 115.272,112.694 116.272,113.694 117.5,114.5C 120.128,121.09 123.295,127.423 127,133.5C 127.876,135.635 129.376,136.969 131.5,137.5C 131.389,138.117 131.056,138.617 130.5,139C 144.97,159.958 159.97,180.458 175.5,200.5C 175.5,258.167 175.5,315.833 175.5,373.5C 174.391,373.443 173.391,373.11 172.5,372.5C 166.866,366.71 160.699,361.377 154,356.5C 149.579,372.59 139.746,384.09 124.5,391C 122.866,391.494 121.199,391.66 119.5,391.5C 118.041,391.567 116.708,391.234 115.5,390.5C 108.998,387.666 102.998,384 97.5,379.5C 83.8354,361.707 82.002,342.707 92,322.5C 95.7347,315.931 100.901,310.931 107.5,307.5C 108.117,307.389 108.617,307.056 109,306.5C 109.93,309.362 111.597,311.695 114,313.5C 114.5,246.167 114.667,178.834 114.5,111.5 Z"/></g>
<g><path style="opacity:1" fill="#39a1fd" d="M 246.5,108.5 C 246.5,135.5 246.5,162.5 246.5,189.5C 236.167,200.5 225.5,211.167 214.5,221.5C 214.5,186.5 214.5,151.5 214.5,116.5C 225.172,113.832 235.839,111.165 246.5,108.5 Z"/></g>
<g><path style="opacity:1" fill="#fba42e" d="M 368.5,103.5 C 367.865,112.234 368.532,120.567 370.5,128.5C 366.833,132.5 363.167,136.5 359.5,140.5C 353.89,144.772 348.557,149.438 343.5,154.5C 343.5,145.833 343.5,137.167 343.5,128.5C 348.5,123.167 353.5,117.833 358.5,112.5C 361.833,109.5 365.167,106.5 368.5,103.5 Z"/></g>
<g><path style="opacity:1" fill="#46a8fd" d="M 214.5,116.5 C 214.5,151.5 214.5,186.5 214.5,221.5C 211.167,225.167 207.833,228.833 204.5,232.5C 197.135,225.435 190.469,217.768 184.5,209.5C 184.5,181.167 184.5,152.833 184.5,124.5C 194.484,121.837 204.484,119.17 214.5,116.5 Z"/></g>
<g><path style="opacity:1" fill="#f9e841" d="M 187.5,96.5 C 187.666,102.842 187.5,109.175 187,115.5C 179.835,118.667 172.335,120.667 164.5,121.5C 163.99,124.388 164.656,126.721 166.5,128.5C 155.059,131.944 143.393,134.944 131.5,137.5C 129.376,136.969 127.876,135.635 127,133.5C 123.295,127.423 120.128,121.09 117.5,114.5C 135.587,109.812 153.587,105.146 171.5,100.5C 176.833,99.1667 182.167,97.8333 187.5,96.5 Z"/></g>
<g><path style="opacity:1" fill="#54b0fe" d="M 184.5,124.5 C 184.5,152.833 184.5,181.167 184.5,209.5C 181.728,206.306 178.728,203.306 175.5,200.5C 159.97,180.458 144.97,159.958 130.5,139C 131.056,138.617 131.389,138.117 131.5,137.5C 143.393,134.944 155.059,131.944 166.5,128.5C 172.5,127.167 178.5,125.833 184.5,124.5 Z"/></g>
<g><path style="opacity:1" fill="#0f6de4" d="M 359.5,140.5 C 368.843,150.542 378.176,160.542 387.5,170.5C 381.146,196.585 374.479,222.585 367.5,248.5C 359.01,281.458 350.677,314.458 342.5,347.5C 341.778,347.918 341.278,348.584 341,349.5C 337.527,346.516 333.694,344.183 329.5,342.5C 326.5,339.833 323.5,337.167 320.5,334.5C 331.671,291.149 342.838,247.815 354,204.5C 355.716,187.285 350.216,172.952 337.5,161.5C 339.5,159.167 341.5,156.833 343.5,154.5C 348.557,149.438 353.89,144.772 359.5,140.5 Z"/></g>
<g><path style="opacity:1" fill="#f8af25" d="M 343.5,128.5 C 343.5,137.167 343.5,145.833 343.5,154.5C 341.5,156.833 339.5,159.167 337.5,161.5C 331.167,167.5 324.833,173.5 318.5,179.5C 317.507,171.35 317.174,163.017 317.5,154.5C 325.833,145.5 334.5,136.833 343.5,128.5 Z"/></g>
<g><path style="opacity:1" fill="#f1c916" d="M 356.5,104.5 C 358.369,106.635 359.036,109.302 358.5,112.5C 353.5,117.833 348.5,123.167 343.5,128.5C 334.5,136.833 325.833,145.5 317.5,154.5C 310.833,160.833 304.167,167.167 297.5,173.5C 297.806,170.615 297.473,167.948 296.5,165.5C 310.465,151.035 324.631,136.701 339,122.5C 339.464,121.906 339.631,121.239 339.5,120.5C 345.167,115.167 350.833,109.833 356.5,104.5 Z"/></g>
<g><path style="opacity:1" fill="#f7bc1b" d="M 317.5,154.5 C 317.174,163.017 317.507,171.35 318.5,179.5C 314.167,184.167 309.833,188.833 305.5,193.5C 300.5,198.167 295.5,202.833 290.5,207.5C 289.507,199.35 289.174,191.017 289.5,182.5C 292.167,179.5 294.833,176.5 297.5,173.5C 304.167,167.167 310.833,160.833 317.5,154.5 Z"/></g>
<g><path style="opacity:1" fill="#138cfc" d="M 337.5,161.5 C 350.216,172.952 355.716,187.285 354,204.5C 342.838,247.815 331.671,291.149 320.5,334.5C 314.959,331.564 309.959,327.897 305.5,323.5C 305.5,280.167 305.5,236.833 305.5,193.5C 309.833,188.833 314.167,184.167 318.5,179.5C 324.833,173.5 331.167,167.5 337.5,161.5 Z"/></g>
<g><path style="opacity:1" fill="#1e92fc" d="M 305.5,193.5 C 305.5,236.833 305.5,280.167 305.5,323.5C 294.629,316.633 284.629,308.633 275.5,299.5C 275.5,274.167 275.5,248.833 275.5,223.5C 280.5,218.167 285.5,212.833 290.5,207.5C 295.5,202.833 300.5,198.167 305.5,193.5 Z"/></g>
<g><path style="opacity:1" fill="#f5c811" d="M 289.5,182.5 C 289.174,191.017 289.507,199.35 290.5,207.5C 285.5,212.833 280.5,218.167 275.5,223.5C 271.167,227.5 266.833,231.5 262.5,235.5C 262.334,226.494 262.5,217.494 263,208.5C 271.702,199.631 280.535,190.964 289.5,182.5 Z"/></g>
<g><path style="opacity:0.997" fill="#ddeffd" d="M 175.5,200.5 C 178.728,203.306 181.728,206.306 184.5,209.5C 190.469,217.768 197.135,225.435 204.5,232.5C 208.167,236.833 212.167,240.833 216.5,244.5C 221.882,251.882 228.215,258.215 235.5,263.5C 239.167,267.5 242.833,271.5 246.5,275.5C 246.5,320.833 246.5,366.167 246.5,411.5C 220.578,402.711 196.911,390.044 175.5,373.5C 175.5,315.833 175.5,258.167 175.5,200.5 Z"/></g>
<g><path style="opacity:1" fill="#1089fb" d="M 260.5,176.5 C 260.175,184.352 260.508,192.018 261.5,199.5C 246.833,214.833 231.833,229.833 216.5,244.5C 212.167,240.833 208.167,236.833 204.5,232.5C 207.833,228.833 211.167,225.167 214.5,221.5C 225.5,211.167 236.167,200.5 246.5,189.5C 251.167,185.167 255.833,180.833 260.5,176.5 Z"/></g>
<g><path style="opacity:1" fill="#f2d712" d="M 296.5,165.5 C 297.473,167.948 297.806,170.615 297.5,173.5C 294.833,176.5 292.167,179.5 289.5,182.5C 280.535,190.964 271.702,199.631 263,208.5C 262.5,217.494 262.334,226.494 262.5,235.5C 253.5,244.833 244.5,254.167 235.5,263.5C 228.215,258.215 221.882,251.882 216.5,244.5C 231.833,229.833 246.833,214.833 261.5,199.5C 273.167,188.167 284.833,176.833 296.5,165.5 Z"/></g>
<g><path style="opacity:1" fill="#2b99fd" d="M 275.5,223.5 C 275.5,248.833 275.5,274.167 275.5,299.5C 265.853,291.523 256.186,283.523 246.5,275.5C 242.833,271.5 239.167,267.5 235.5,263.5C 244.5,254.167 253.5,244.833 262.5,235.5C 266.833,231.5 271.167,227.5 275.5,223.5 Z"/></g>
<g><path style="opacity:1" fill="#1a59cc" d="M 408.5,196.5 C 423.051,214.057 436.051,232.724 447.5,252.5C 446.883,252.389 446.383,252.056 446,251.5C 445.5,295.832 445.333,340.165 445.5,384.5C 435.869,385.995 426.203,385.662 416.5,383.5C 416.167,383.5 415.833,383.5 415.5,383.5C 415.389,382.883 415.056,382.383 414.5,382C 426.064,377.435 433.898,369.268 438,357.5C 441.396,343.765 441.063,330.099 437,316.5C 430.661,294.629 421.161,274.296 408.5,255.5C 405.332,249.158 401.665,243.158 397.5,237.5C 401.001,223.682 404.668,210.015 408.5,196.5 Z"/></g>
<g><path style="opacity:1" fill="#0e77ee" d="M 397.5,237.5 C 401.665,243.158 405.332,249.158 408.5,255.5C 408.5,297.5 408.5,339.5 408.5,381.5C 393.244,377.034 378.911,370.701 365.5,362.5C 366.677,356.793 368.01,351.126 369.5,345.5C 378.833,309.5 388.167,273.5 397.5,237.5 Z"/></g>
<g><path style="opacity:1" fill="#0e6ce3" d="M 408.5,255.5 C 421.161,274.296 430.661,294.629 437,316.5C 441.063,330.099 441.396,343.765 438,357.5C 433.898,369.268 426.064,377.435 414.5,382C 415.056,382.383 415.389,382.883 415.5,383.5C 413.106,382.985 410.772,382.319 408.5,381.5C 408.5,339.5 408.5,297.5 408.5,255.5 Z"/></g>
<g><path style="opacity:1" fill="#1f51c3" d="M 447.5,252.5 C 463.787,275.755 474.62,301.422 480,329.5C 484.115,349.324 478.615,365.657 463.5,378.5C 458.01,381.885 452.01,383.885 445.5,384.5C 445.333,340.165 445.5,295.832 446,251.5C 446.383,252.056 446.883,252.389 447.5,252.5 Z"/></g>
<g><path style="opacity:1" fill="#faa032" d="M 367.5,248.5 C 368.167,280.833 368.833,313.167 369.5,345.5C 368.01,351.126 366.677,356.793 365.5,362.5C 357.79,359.478 350.457,355.644 343.5,351C 342.663,349.989 342.33,348.822 342.5,347.5C 350.677,314.458 359.01,281.458 367.5,248.5 Z"/></g>
<g><path style="opacity:0.997" fill="#d6ebfe" d="M 246.5,275.5 C 256.186,283.523 265.853,291.523 275.5,299.5C 284.629,308.633 294.629,316.633 305.5,323.5C 309.959,327.897 314.959,331.564 320.5,334.5C 323.5,337.167 326.5,339.833 329.5,342.5C 329.5,369.5 329.5,396.5 329.5,423.5C 324.306,424.099 319.306,425.099 314.5,426.5C 290.94,425.057 268.273,420.057 246.5,411.5C 246.5,366.167 246.5,320.833 246.5,275.5 Z"/></g>
<g><path style="opacity:1" fill="#c9e4fd" d="M 329.5,342.5 C 333.694,344.183 337.527,346.516 341,349.5C 341.278,348.584 341.778,347.918 342.5,347.5C 342.33,348.822 342.663,349.989 343.5,351C 350.457,355.644 357.79,359.478 365.5,362.5C 378.911,370.701 393.244,377.034 408.5,381.5C 410.772,382.319 413.106,382.985 415.5,383.5C 415.833,383.5 416.167,383.5 416.5,383.5C 391.531,405.145 362.531,418.478 329.5,423.5C 329.5,396.5 329.5,369.5 329.5,342.5 Z"/></g>
<g><path style="opacity:0.995" fill="#8bc9fe" d="M 167.5,379.5 C 190.172,417.686 212.672,456.019 235,494.5C 236.643,502.092 234.143,507.759 227.5,511.5C 223.833,511.5 220.167,511.5 216.5,511.5C 214.563,510.069 212.73,508.402 211,506.5C 189.919,470.002 168.586,433.669 147,397.5C 146.667,432.167 146.333,466.833 146,501.5C 144.787,505.869 142.287,509.203 138.5,511.5C 134.833,511.5 131.167,511.5 127.5,511.5C 127.5,510.833 127.167,510.5 126.5,510.5C 126.5,471.5 126.5,432.5 126.5,393.5C 142.419,395.194 156.086,390.528 167.5,379.5 Z"/></g>
<g><path style="opacity:0.998" fill="#b3dafd" d="M 463.5,378.5 C 433.887,405.629 398.887,421.463 358.5,426C 343.816,427.641 329.149,427.808 314.5,426.5C 319.306,425.099 324.306,424.099 329.5,423.5C 362.531,418.478 391.531,405.145 416.5,383.5C 426.203,385.662 435.869,385.995 445.5,384.5C 452.01,383.885 458.01,381.885 463.5,378.5 Z"/></g>
<g><path style="opacity:0.928" fill="#bddffe" d="M 172.5,372.5 C 171.221,375.112 169.555,377.445 167.5,379.5C 156.086,390.528 142.419,395.194 126.5,393.5C 126.5,432.5 126.5,471.5 126.5,510.5C 123.441,508.603 121.274,505.936 120,502.5C 119.833,467.331 119.333,432.331 118.5,397.5C 120.151,395.598 120.484,393.598 119.5,391.5C 121.199,391.66 122.866,391.494 124.5,391C 139.746,384.09 149.579,372.59 154,356.5C 160.699,361.377 166.866,366.71 172.5,372.5 Z"/></g>
<g><path style="opacity:0.983" fill="#cae5fe" d="M 97.5,379.5 C 102.998,384 108.998,387.666 115.5,390.5C 90.7479,430.33 66.7479,470.663 43.5,511.5C 41.8333,511.5 40.1667,511.5 38.5,511.5C 31.3986,507.611 28.8986,501.611 31,493.5C 53.4423,455.609 75.6089,417.609 97.5,379.5 Z"/></g>
<g><path style="opacity:1" fill="#a1d2fe" d="M 115.5,390.5 C 116.708,391.234 118.041,391.567 119.5,391.5C 120.484,393.598 120.151,395.598 118.5,397.5C 97.6899,433.112 76.8566,468.778 56,504.5C 54.2576,507.746 51.7576,510.079 48.5,511.5C 46.8333,511.5 45.1667,511.5 43.5,511.5C 66.7479,470.663 90.7479,430.33 115.5,390.5 Z"/></g>
</svg>
