<?xml version="1.0" encoding="UTF-8"?>
<!DOCTYPE svg PUBLIC "-//W3C//DTD SVG 1.1//EN" "http://www.w3.org/Graphics/SVG/1.1/DTD/svg11.dtd">
<svg xmlns="http://www.w3.org/2000/svg" version="1.1" width="512px" height="512px" style="shape-rendering:geometricPrecision; text-rendering:geometricPrecision; image-rendering:optimizeQuality; fill-rule:evenodd; clip-rule:evenodd" xmlns:xlink="http://www.w3.org/1999/xlink">
<g><path style="opacity:0.983" fill="#e7f3fe" d="M 131.5,-0.5 C 136.167,-0.5 140.833,-0.5 145.5,-0.5C 149.365,1.02492 152.698,3.35826 155.5,6.5C 150.833,11.8333 145.833,16.8333 140.5,21.5C 137.741,19.7069 134.741,19.2069 131.5,20C 128.06,22.0421 125.06,24.5421 122.5,27.5C 109.805,39.028 97.9716,51.3613 87,64.5C 86.2099,67.634 86.5432,70.634 88,73.5C 95.0359,80.3685 101.869,87.3685 108.5,94.5C 104.833,100.167 100.167,104.833 94.5,108.5C 87.7018,102.203 81.0352,95.7027 74.5,89C 67.7381,85.0149 62.0714,86.1816 57.5,92.5C 44.1387,104.694 31.6387,117.694 20,131.5C 19.245,134.303 19.5783,136.97 21,139.5C 27.0362,145.369 32.8695,151.369 38.5,157.5C 32.4908,157.666 26.4908,157.499 20.5,157C 19.3133,154.226 17.9799,151.559 16.5,149C 12.1667,148.667 7.83333,148.333 3.5,148C 2.01608,147.338 0.682751,146.504 -0.5,145.5C -0.5,140.833 -0.5,136.167 -0.5,131.5C 4.19508,121.452 10.8617,112.786 19.5,105.5C 26.5,99.1667 33.1667,92.5 39.5,85.5C 54.5,69.8333 69.8333,54.5 85.5,39.5C 92.5,33.1667 99.1667,26.5 105.5,19.5C 112.447,10.3862 121.114,3.71957 131.5,-0.5 Z"/></g>
<g><path style="opacity:0.987" fill="#6d4399" d="M 73.5,-0.5 C 76.8333,-0.5 80.1667,-0.5 83.5,-0.5C 91.1067,5.76898 98.44,12.4356 105.5,19.5C 99.1667,26.5 92.5,33.1667 85.5,39.5C 80.2029,33.7019 74.7029,28.0353 69,22.5C 64.7589,16.4081 64.4255,10.0748 68,3.5C 69.8121,2.02294 71.6455,0.689603 73.5,-0.5 Z"/></g>
<g><path style="opacity:1" fill="#503b8f" d="M 140.5,21.5 C 150.194,31.8604 160.194,41.8604 170.5,51.5C 155.109,66.3893 139.776,81.556 124.5,97C 123.906,97.4643 123.239,97.631 122.5,97.5C 122.5,74.1667 122.5,50.8333 122.5,27.5C 125.06,24.5421 128.06,22.0421 131.5,20C 134.741,19.2069 137.741,19.7069 140.5,21.5 Z"/></g>
<g><path style="opacity:1" fill="#5d4094" d="M 122.5,27.5 C 122.5,50.8333 122.5,74.1667 122.5,97.5C 120.221,98.6515 117.888,99.6515 115.5,100.5C 113.167,98.5 110.833,96.5 108.5,94.5C 101.869,87.3685 95.0359,80.3685 88,73.5C 86.5432,70.634 86.2099,67.634 87,64.5C 97.9716,51.3613 109.805,39.028 122.5,27.5 Z"/></g>
<g><path style="opacity:0.996" fill="#8ac526" d="M 244.5,35.5 C 246.265,36.4614 248.265,36.7947 250.5,36.5C 251.826,58.2644 251.826,79.9311 250.5,101.5C 239.833,91.1667 229.167,80.8333 218.5,70.5C 209.777,61.7804 201.444,52.7804 193.5,43.5C 210.231,39.2116 227.231,36.5449 244.5,35.5 Z"/></g>
<g><path style="opacity:1" fill="#85be25" d="M 250.5,36.5 C 262.325,37.6282 273.992,39.6282 285.5,42.5C 286.494,81.7608 286.827,121.094 286.5,160.5C 277.392,160.784 269.392,163.784 262.5,169.5C 258.543,172.122 254.876,175.122 251.5,178.5C 251.821,172.974 251.488,167.64 250.5,162.5C 255.496,157.336 260.329,152.003 265,146.5C 273.65,129.954 270.15,116.621 254.5,106.5C 253.167,104.833 251.833,103.167 250.5,101.5C 251.826,79.9311 251.826,58.2644 250.5,36.5 Z"/></g>
<g><path style="opacity:1" fill="#56a33f" d="M 244.5,35.5 C 268.099,34.2909 291.099,36.9576 313.5,43.5C 311.738,43.6427 310.071,43.3094 308.5,42.5C 307.526,44.7427 307.192,47.076 307.5,49.5C 300.156,47.1629 292.822,44.8295 285.5,42.5C 273.992,39.6282 262.325,37.6282 250.5,36.5C 248.265,36.7947 246.265,36.4614 244.5,35.5 Z"/></g>
<g><path style="opacity:1" fill="#7fb824" d="M 285.5,42.5 C 292.822,44.8295 300.156,47.1629 307.5,49.5C 312.519,52.3425 317.186,55.6759 321.5,59.5C 321.5,89.1667 321.5,118.833 321.5,148.5C 318.743,151.579 315.41,153.912 311.5,155.5C 303.458,158.548 295.125,160.215 286.5,160.5C 286.827,121.094 286.494,81.7608 285.5,42.5 Z"/></g>
<g><path style="opacity:0.992" fill="#8ecafd" d="M 511.5,119.5 C 511.5,125.5 511.5,131.5 511.5,137.5C 509.907,142.02 507.74,146.353 505,150.5C 495.475,161.024 485.642,171.19 475.5,181C 472.178,183.332 468.511,184.498 464.5,184.5C 462.167,184.5 459.833,184.5 457.5,184.5C 450.622,182.841 443.622,182.175 436.5,182.5C 436.5,183.5 436.5,184.5 436.5,185.5C 435.849,184.909 435.182,184.243 434.5,183.5C 431.471,184.84 428.471,186.173 425.5,187.5C 425.5,183.833 425.5,180.167 425.5,176.5C 428.912,175.925 431.912,174.592 434.5,172.5C 444.773,163.059 454.607,153.059 464,142.5C 475.385,124.771 473.718,108.437 459,93.5C 454.71,85.389 452.71,76.7223 453,67.5C 451.91,64.0606 450.744,60.7273 449.5,57.5C 453.287,52.7866 458.287,50.7866 464.5,51.5C 476.477,51.6471 485.311,56.9804 491,67.5C 493.476,76.7157 495.476,86.0491 497,95.5C 500.276,101.108 503.943,106.442 508,111.5C 509.093,114.309 510.26,116.976 511.5,119.5 Z"/></g>
<g><path style="opacity:1" fill="#d9ebfd" d="M 155.5,6.5 C 168.167,18.8333 180.833,31.1667 193.5,43.5C 201.444,52.7804 209.777,61.7804 218.5,70.5C 213.092,74.4002 208.092,78.9002 203.5,84C 201.942,84.21 200.609,84.71 199.5,85.5C 197.692,85.4914 196.025,85.9914 194.5,87C 181,100.5 167.5,114 154,127.5C 153.209,128.745 152.709,130.078 152.5,131.5C 151.698,132.952 151.198,134.618 151,136.5C 146.167,141.333 141.333,146.167 136.5,151C 134.618,151.198 132.952,151.698 131.5,152.5C 130.078,152.709 128.745,153.209 127.5,154C 114,167.5 100.5,181 87,194.5C 85.9914,196.025 85.4914,197.692 85.5,199.5C 81.3422,206.337 76.0089,212.337 69.5,217.5C 66.1667,214.5 62.8333,211.5 59.5,208.5C 54.4721,203.14 49.4721,197.807 44.5,192.5C 44.5,183.167 44.5,173.833 44.5,164.5C 45.5,165.167 46.5,165.833 47.5,166.5C 52.2969,171.798 57.2969,176.965 62.5,182C 67.3271,184.147 71.9938,183.814 76.5,181C 90.0294,167.805 103.196,154.305 116,140.5C 118,137.167 118,133.833 116,130.5C 110.631,124.964 105.131,119.63 99.5,114.5C 97.8333,112.5 96.1667,110.5 94.5,108.5C 100.167,104.833 104.833,100.167 108.5,94.5C 110.833,96.5 113.167,98.5 115.5,100.5C 120.297,105.798 125.297,110.965 130.5,116C 135.221,118.072 139.555,117.406 143.5,114C 157.397,100.772 170.564,86.9388 183,72.5C 183.817,69.0357 183.483,65.7024 182,62.5C 178.298,58.6295 174.464,54.9629 170.5,51.5C 160.194,41.8604 150.194,31.8604 140.5,21.5C 145.833,16.8333 150.833,11.8333 155.5,6.5 Z"/></g>
<g><path style="opacity:0.997" fill="#afd8fe" d="M 449.5,57.5 C 450.744,60.7273 451.91,64.0606 453,67.5C 452.71,76.7223 454.71,85.389 459,93.5C 473.718,108.437 475.385,124.771 464,142.5C 454.607,153.059 444.773,163.059 434.5,172.5C 434.5,136.167 434.5,99.8333 434.5,63.5C 440.188,63.0521 445.188,61.0521 449.5,57.5 Z"/></g>
<g><path style="opacity:1" fill="#3e368a" d="M 170.5,51.5 C 174.464,54.9629 178.298,58.6295 182,62.5C 183.483,65.7024 183.817,69.0357 183,72.5C 170.564,86.9388 157.397,100.772 143.5,114C 139.555,117.406 135.221,118.072 130.5,116C 125.297,110.965 120.297,105.798 115.5,100.5C 117.888,99.6515 120.221,98.6515 122.5,97.5C 123.239,97.631 123.906,97.4643 124.5,97C 139.776,81.556 155.109,66.3893 170.5,51.5 Z"/></g>
<g><path style="opacity:1" fill="#71b12c" d="M 321.5,59.5 C 341.248,78.1599 346.748,100.493 338,126.5C 335.507,132.157 332.507,137.49 329,142.5C 326.894,145.118 324.394,147.118 321.5,148.5C 321.5,118.833 321.5,89.1667 321.5,59.5 Z"/></g>
<g><path style="opacity:1" fill="#228b60" d="M 343.5,56.5 C 362.601,72.3925 370.268,92.7258 366.5,117.5C 364.462,121.94 362.796,126.607 361.5,131.5C 356.959,140.045 350.625,147.045 342.5,152.5C 342.174,120.427 342.508,88.4267 343.5,56.5 Z"/></g>
<g><path style="opacity:0.999" fill="#baddfe" d="M 407.5,63.5 C 416.5,63.5 425.5,63.5 434.5,63.5C 434.5,99.8333 434.5,136.167 434.5,172.5C 431.912,174.592 428.912,175.925 425.5,176.5C 416.8,176.157 408.133,175.49 399.5,174.5C 401.948,173.527 404.615,173.194 407.5,173.5C 407.5,136.833 407.5,100.167 407.5,63.5 Z"/></g>
<g><path style="opacity:1" fill="#2050c2" d="M 335.5,50.5 C 355.211,58.1847 373.544,68.1847 390.5,80.5C 390.662,85.1821 389.495,89.5155 387,93.5C 379.552,101.103 372.719,109.103 366.5,117.5C 370.268,92.7258 362.601,72.3925 343.5,56.5C 340.795,54.4884 338.128,52.4884 335.5,50.5 Z"/></g>
<g><path style="opacity:0.985" fill="#70459a" d="M 39.5,85.5 C 33.1667,92.5 26.5,99.1667 19.5,105.5C 12.4356,98.44 5.76898,91.1067 -0.5,83.5C -0.5,80.1667 -0.5,76.8333 -0.5,73.5C 3.38921,66.3986 9.38921,63.8986 17.5,66C 19.1667,67 20.8333,68 22.5,69C 28.0353,74.7029 33.7019,80.2029 39.5,85.5 Z"/></g>
<g><path style="opacity:1" fill="#c7e2fb" d="M 218.5,70.5 C 229.167,80.8333 239.833,91.1667 250.5,101.5C 251.833,103.167 253.167,104.833 254.5,106.5C 259.582,117.958 257.915,128.291 249.5,137.5C 249.998,133.781 249.164,130.447 247,127.5C 242.298,122.63 237.465,117.963 232.5,113.5C 223.395,104.896 214.395,96.0629 205.5,87C 203.655,85.872 201.655,85.372 199.5,85.5C 200.609,84.71 201.942,84.21 203.5,84C 208.092,78.9002 213.092,74.4002 218.5,70.5 Z"/></g>
<g><path style="opacity:1" fill="#694398" d="M 94.5,108.5 C 96.1667,110.5 97.8333,112.5 99.5,114.5C 98.8292,117.758 97.9958,121.091 97,124.5C 83.9652,137.702 70.7985,150.702 57.5,163.5C 57.5,139.833 57.5,116.167 57.5,92.5C 62.0714,86.1816 67.7381,85.0149 74.5,89C 81.0352,95.7027 87.7018,102.203 94.5,108.5 Z"/></g>
<g><path style="opacity:1" fill="#3f368a" d="M 199.5,85.5 C 201.655,85.372 203.655,85.872 205.5,87C 214.395,96.0629 223.395,104.896 232.5,113.5C 231.653,116.816 230.486,120.15 229,123.5C 216.167,136.333 203.333,149.167 190.5,162C 187.224,163.692 183.891,164.859 180.5,165.5C 178.5,163.833 176.5,162.167 174.5,160.5C 167.869,153.368 161.036,146.368 154,139.5C 152.748,136.986 152.248,134.32 152.5,131.5C 152.709,130.078 153.209,128.745 154,127.5C 167.5,114 181,100.5 194.5,87C 196.025,85.9914 197.692,85.4914 199.5,85.5 Z"/></g>
<g><path style="opacity:1" fill="#c8e4fd" d="M 407.5,63.5 C 407.5,100.167 407.5,136.833 407.5,173.5C 404.615,173.194 401.948,173.527 399.5,174.5C 389.624,177.903 379.624,180.903 369.5,183.5C 364.865,179.235 362.032,173.902 361,167.5C 360.229,155.467 360.395,143.467 361.5,131.5C 362.796,126.607 364.462,121.94 366.5,117.5C 372.719,109.103 379.552,101.103 387,93.5C 389.495,89.5155 390.662,85.1821 390.5,80.5C 391.195,69.8047 396.862,64.138 407.5,63.5 Z"/></g>
<g><path style="opacity:0.998" fill="#75479c" d="M 57.5,92.5 C 57.5,116.167 57.5,139.833 57.5,163.5C 54.1888,164.865 50.8555,165.865 47.5,166.5C 46.5,165.833 45.5,165.167 44.5,164.5C 43.9709,160.967 41.9709,158.633 38.5,157.5C 32.8695,151.369 27.0362,145.369 21,139.5C 19.5783,136.97 19.245,134.303 20,131.5C 31.6387,117.694 44.1387,104.694 57.5,92.5 Z"/></g>
<g><path style="opacity:1" fill="#8ac9fd" d="M 254.5,106.5 C 270.15,116.621 273.65,129.954 265,146.5C 260.329,152.003 255.496,157.336 250.5,162.5C 231.5,180.833 212.833,199.5 194.5,218.5C 185.833,226.5 177.5,234.833 169.5,243.5C 162.702,249.797 156.035,256.297 149.5,263C 146.968,264.765 144.301,266.265 141.5,267.5C 136.341,269.183 131.008,269.849 125.5,269.5C 117.728,266.403 111.395,261.403 106.5,254.5C 117.996,259.685 128.33,258.018 137.5,249.5C 153.5,235.5 168.5,220.5 182.5,204.5C 183.239,204.631 183.906,204.464 184.5,204C 191.761,197.244 198.428,190.078 204.5,182.5C 220.5,168.5 235.5,153.5 249.5,137.5C 257.915,128.291 259.582,117.958 254.5,106.5 Z"/></g>
<g><path style="opacity:1" fill="#1a2b7e" d="M 232.5,113.5 C 237.465,117.963 242.298,122.63 247,127.5C 249.164,130.447 249.998,133.781 249.5,137.5C 235.5,153.5 220.5,168.5 204.5,182.5C 201.351,182.789 198.351,182.289 195.5,181C 190.297,175.965 185.297,170.798 180.5,165.5C 183.891,164.859 187.224,163.692 190.5,162C 203.333,149.167 216.167,136.333 229,123.5C 230.486,120.15 231.653,116.816 232.5,113.5 Z"/></g>
<g><path style="opacity:1" fill="#339356" d="M 313.5,43.5 C 321.168,45.0572 328.501,47.3906 335.5,50.5C 338.128,52.4884 340.795,54.4884 343.5,56.5C 342.508,88.4267 342.174,120.427 342.5,152.5C 340.5,153.5 338.5,154.5 336.5,155.5C 335.833,155.5 335.5,155.833 335.5,156.5C 327.3,158.807 318.967,160.473 310.5,161.5C 310.325,159.379 310.659,157.379 311.5,155.5C 315.41,153.912 318.743,151.579 321.5,148.5C 324.394,147.118 326.894,145.118 329,142.5C 332.507,137.49 335.507,132.157 338,126.5C 346.748,100.493 341.248,78.1599 321.5,59.5C 317.186,55.6759 312.519,52.3425 307.5,49.5C 307.192,47.076 307.526,44.7427 308.5,42.5C 310.071,43.3094 311.738,43.6427 313.5,43.5 Z"/></g>
<g><path style="opacity:1" fill="#3f368a" d="M 99.5,114.5 C 105.131,119.63 110.631,124.964 116,130.5C 118,133.833 118,137.167 116,140.5C 103.196,154.305 90.0294,167.805 76.5,181C 71.9938,183.814 67.3271,184.147 62.5,182C 57.2969,176.965 52.2969,171.798 47.5,166.5C 50.8555,165.865 54.1888,164.865 57.5,163.5C 70.7985,150.702 83.9652,137.702 97,124.5C 97.9958,121.091 98.8292,117.758 99.5,114.5 Z"/></g>
<g><path style="opacity:1" fill="#1069df" d="M 361.5,131.5 C 360.395,143.467 360.229,155.467 361,167.5C 362.032,173.902 364.865,179.235 369.5,183.5C 369.5,183.833 369.5,184.167 369.5,184.5C 368.501,260.665 368.167,336.998 368.5,413.5C 362.833,418.833 357.167,424.167 351.5,429.5C 348.851,431.14 346.184,432.807 343.5,434.5C 343.5,405.5 343.5,376.5 343.5,347.5C 345.444,343.277 347.111,338.944 348.5,334.5C 350.753,329.843 352.253,324.843 353,319.5C 354.56,302.671 356.06,285.838 357.5,269C 357.643,258.373 354.643,248.873 348.5,240.5C 345.887,234.887 341.887,230.554 336.5,227.5C 336.5,227.167 336.5,226.833 336.5,226.5C 336.5,202.833 336.5,179.167 336.5,155.5C 338.5,154.5 340.5,153.5 342.5,152.5C 350.625,147.045 356.959,140.045 361.5,131.5 Z"/></g>
<g><path style="opacity:1" fill="#cce5fd" d="M 152.5,131.5 C 152.248,134.32 152.748,136.986 154,139.5C 161.036,146.368 167.869,153.368 174.5,160.5C 170.167,165.5 165.5,170.167 160.5,174.5C 153.368,167.869 146.368,161.036 139.5,154C 136.986,152.748 134.32,152.248 131.5,152.5C 132.952,151.698 134.618,151.198 136.5,151C 141.333,146.167 146.167,141.333 151,136.5C 151.198,134.618 151.698,132.952 152.5,131.5 Z"/></g>
<g><path style="opacity:1" fill="#0878f0" d="M 336.5,155.5 C 336.5,179.167 336.5,202.833 336.5,226.5C 321.785,217.555 305.785,213.555 288.5,214.5C 276.467,209.437 271.467,200.437 273.5,187.5C 286.792,186.382 299.792,183.882 312.5,180C 323.072,174.928 330.739,167.095 335.5,156.5C 335.5,155.833 335.833,155.5 336.5,155.5 Z"/></g>
<g><path style="opacity:1" fill="#583d92" d="M 131.5,152.5 C 134.32,152.248 136.986,152.748 139.5,154C 146.368,161.036 153.368,167.869 160.5,174.5C 162.167,176.5 163.833,178.5 165.5,180.5C 164.859,183.891 163.692,187.224 162,190.5C 149.167,203.333 136.333,216.167 123.5,229C 120.224,230.692 116.891,231.859 113.5,232.5C 104.896,223.395 96.0629,214.395 87,205.5C 85.872,203.655 85.372,201.655 85.5,199.5C 85.4914,197.692 85.9914,196.025 87,194.5C 100.5,181 114,167.5 127.5,154C 128.745,153.209 130.078,152.709 131.5,152.5 Z"/></g>
<g><path style="opacity:1" fill="#1b55c8" d="M 335.5,156.5 C 330.739,167.095 323.072,174.928 312.5,180C 299.792,183.882 286.792,186.382 273.5,187.5C 276.043,178.783 281.377,172.283 289.5,168C 295.76,163.525 302.76,161.358 310.5,161.5C 318.967,160.473 327.3,158.807 335.5,156.5 Z"/></g>
<g><path style="opacity:1" fill="#63aa36" d="M 311.5,155.5 C 310.659,157.379 310.325,159.379 310.5,161.5C 302.76,161.358 295.76,163.525 289.5,168C 281.377,172.283 276.043,178.783 273.5,187.5C 271.467,200.437 276.467,209.437 288.5,214.5C 288.167,215.167 287.833,215.833 287.5,216.5C 286.833,216.5 286.167,216.5 285.5,216.5C 277.656,217.019 269.989,216.353 262.5,214.5C 262.5,199.5 262.5,184.5 262.5,169.5C 269.392,163.784 277.392,160.784 286.5,160.5C 295.125,160.215 303.458,158.548 311.5,155.5 Z"/></g>
<g><path style="opacity:1" fill="#6faf2e" d="M 262.5,169.5 C 262.5,184.5 262.5,199.5 262.5,214.5C 258.273,212.607 254.607,209.94 251.5,206.5C 246.291,197.118 246.291,187.784 251.5,178.5C 254.876,175.122 258.543,172.122 262.5,169.5 Z"/></g>
<g><path style="opacity:1" fill="#bedefd" d="M 174.5,160.5 C 176.5,162.167 178.5,163.833 180.5,165.5C 185.297,170.798 190.297,175.965 195.5,181C 198.351,182.289 201.351,182.789 204.5,182.5C 198.428,190.078 191.761,197.244 184.5,204C 183.906,204.464 183.239,204.631 182.5,204.5C 182.789,201.351 182.289,198.351 181,195.5C 175.965,190.297 170.798,185.297 165.5,180.5C 163.833,178.5 162.167,176.5 160.5,174.5C 165.5,170.167 170.167,165.5 174.5,160.5 Z"/></g>
<g><path style="opacity:1" fill="#abd6fd" d="M 399.5,174.5 C 408.133,175.49 416.8,176.157 425.5,176.5C 425.5,180.167 425.5,183.833 425.5,187.5C 417.704,190.115 409.704,191.782 401.5,192.5C 395.153,193.788 388.82,193.788 382.5,192.5C 377.326,191.085 372.993,188.419 369.5,184.5C 369.5,184.167 369.5,183.833 369.5,183.5C 379.624,180.903 389.624,177.903 399.5,174.5 Z"/></g>
<g><path style="opacity:1" fill="#8ac427" d="M 250.5,162.5 C 251.488,167.64 251.821,172.974 251.5,178.5C 246.291,187.784 246.291,197.118 251.5,206.5C 251.832,246.337 251.499,286.004 250.5,325.5C 249.833,325.5 249.167,325.5 248.5,325.5C 234.895,322.198 223.228,315.532 213.5,305.5C 206.86,295.528 204.693,284.528 207,272.5C 208.059,269.382 209.392,266.382 211,263.5C 216.143,258.268 221.476,253.268 227,248.5C 229.773,241.832 228.607,235.998 223.5,231C 216.637,228.268 209.637,225.934 202.5,224C 199.244,222.884 196.578,221.051 194.5,218.5C 212.833,199.5 231.5,180.833 250.5,162.5 Z"/></g>
<g><path style="opacity:1" fill="#1b2b7e" d="M 165.5,180.5 C 170.798,185.297 175.965,190.297 181,195.5C 182.289,198.351 182.789,201.351 182.5,204.5C 168.5,220.5 153.5,235.5 137.5,249.5C 133.781,249.998 130.447,249.164 127.5,247C 122.63,242.298 117.963,237.465 113.5,232.5C 116.891,231.859 120.224,230.692 123.5,229C 136.333,216.167 149.167,203.333 162,190.5C 163.692,187.224 164.859,183.891 165.5,180.5 Z"/></g>
<g><path style="opacity:1" fill="#2740af" d="M 436.5,185.5 C 437.824,191.152 439.991,196.486 443,201.5C 450.269,209.596 456.102,218.596 460.5,228.5C 464.474,241.803 464.474,255.136 460.5,268.5C 456.459,278.602 450.459,287.269 442.5,294.5C 439.141,297.529 435.808,300.529 432.5,303.5C 432.167,303.5 431.833,303.5 431.5,303.5C 430.957,303.44 430.624,303.107 430.5,302.5C 432.859,295.017 434.359,287.351 435,279.5C 438.185,248.108 435.018,217.441 425.5,187.5C 428.471,186.173 431.471,184.84 434.5,183.5C 435.182,184.243 435.849,184.909 436.5,185.5 Z"/></g>
<g><path style="opacity:1" fill="#1f8a62" d="M 457.5,184.5 C 458.568,185.434 459.901,185.768 461.5,185.5C 461.829,200.01 461.496,214.343 460.5,228.5C 456.102,218.596 450.269,209.596 443,201.5C 439.991,196.486 437.824,191.152 436.5,185.5C 436.5,184.5 436.5,183.5 436.5,182.5C 443.622,182.175 450.622,182.841 457.5,184.5 Z"/></g>
<g><path style="opacity:0.992" fill="#168669" d="M 457.5,184.5 C 459.833,184.5 462.167,184.5 464.5,184.5C 475.23,218.139 478.23,252.472 473.5,287.5C 471.151,299.889 468.151,312.222 464.5,324.5C 463.655,325.671 462.989,327.005 462.5,328.5C 461.833,308.5 461.167,288.5 460.5,268.5C 464.474,255.136 464.474,241.803 460.5,228.5C 461.496,214.343 461.829,200.01 461.5,185.5C 459.901,185.768 458.568,185.434 457.5,184.5 Z"/></g>
<g><path style="opacity:1" fill="#1362d7" d="M 369.5,184.5 C 372.993,188.419 377.326,191.085 382.5,192.5C 382.5,261.167 382.5,329.833 382.5,398.5C 378.539,404.129 373.873,409.129 368.5,413.5C 368.167,336.998 368.501,260.665 369.5,184.5 Z"/></g>
<g><path style="opacity:1" fill="#1b55c8" d="M 425.5,187.5 C 435.018,217.441 438.185,248.108 435,279.5C 434.359,287.351 432.859,295.017 430.5,302.5C 430.624,303.107 430.957,303.44 431.5,303.5C 425.442,308.225 420.442,313.892 416.5,320.5C 410.297,332.36 407.797,345.027 409,358.5C 408.149,362.64 406.982,366.64 405.5,370.5C 404.883,370.389 404.383,370.056 404,369.5C 402.476,371.898 400.976,374.231 399.5,376.5C 398.843,314.952 399.51,253.618 401.5,192.5C 409.704,191.782 417.704,190.115 425.5,187.5 Z"/></g>
<g><path style="opacity:1" fill="#165cd0" d="M 382.5,192.5 C 388.82,193.788 395.153,193.788 401.5,192.5C 399.51,253.618 398.843,314.952 399.5,376.5C 394.568,384.429 388.901,391.762 382.5,398.5C 382.5,329.833 382.5,261.167 382.5,192.5 Z"/></g>
<g><path style="opacity:0.998" fill="#5bb4fe" d="M 44.5,192.5 C 49.4721,197.807 54.4721,203.14 59.5,208.5C 58.1667,238.5 58.1667,268.5 59.5,298.5C 50.3175,302.846 45.6508,310.18 45.5,320.5C 35.6835,290.292 32.8502,259.292 37,227.5C 38.4209,215.559 40.9209,203.893 44.5,192.5 Z"/></g>
<g><path style="opacity:1" fill="#85bd25" d="M 251.5,206.5 C 254.607,209.94 258.273,212.607 262.5,214.5C 269.989,216.353 277.656,217.019 285.5,216.5C 286.496,272.095 286.829,327.762 286.5,383.5C 283.91,384.128 281.577,385.295 279.5,387C 273.957,392.874 268.79,399.041 264,405.5C 263.506,407.134 263.34,408.801 263.5,410.5C 262.571,411.936 261.405,413.269 260,414.5C 259.536,413.906 259.369,413.239 259.5,412.5C 263.016,398.438 266.849,384.438 271,370.5C 274.974,350.455 268.141,335.455 250.5,325.5C 251.499,286.004 251.832,246.337 251.5,206.5 Z"/></g>
<g><path style="opacity:1" fill="#c7e2fc" d="M 85.5,199.5 C 85.372,201.655 85.872,203.655 87,205.5C 96.0629,214.395 104.896,223.395 113.5,232.5C 117.963,237.465 122.63,242.298 127.5,247C 130.447,249.164 133.781,249.998 137.5,249.5C 128.33,258.018 117.996,259.685 106.5,254.5C 102.5,250.833 98.5,247.167 94.5,243.5C 86.1667,234.833 77.8333,226.167 69.5,217.5C 76.0089,212.337 81.3422,206.337 85.5,199.5 Z"/></g>
<g><path style="opacity:1" fill="#81b923" d="M 285.5,216.5 C 286.167,216.5 286.833,216.5 287.5,216.5C 297.023,218.219 305.356,222.219 312.5,228.5C 312.5,271.5 312.5,314.5 312.5,357.5C 308.61,367.432 302.61,375.932 294.5,383C 293.552,383.483 292.552,383.649 291.5,383.5C 289.833,383.5 288.167,383.5 286.5,383.5C 286.829,327.762 286.496,272.095 285.5,216.5 Z"/></g>
<g><path style="opacity:1" fill="#067df5" d="M 194.5,218.5 C 196.578,221.051 199.244,222.884 202.5,224C 209.637,225.934 216.637,228.268 223.5,231C 228.607,235.998 229.773,241.832 227,248.5C 221.476,253.268 216.143,258.268 211,263.5C 209.392,266.382 208.059,269.382 207,272.5C 204.693,284.528 206.86,295.528 213.5,305.5C 212.504,318.99 212.171,332.656 212.5,346.5C 210.708,346.634 209.042,346.301 207.5,345.5C 201.234,341.081 195.067,336.414 189,331.5C 181.972,321.229 179.639,309.896 182,297.5C 185.301,288.531 191.134,281.697 199.5,277C 205.571,268.63 204.571,261.297 196.5,255C 189.441,252.924 182.441,250.757 175.5,248.5C 173.091,247.299 171.091,245.633 169.5,243.5C 177.5,234.833 185.833,226.5 194.5,218.5 Z"/></g>
<g><path style="opacity:1" fill="#349455" d="M 288.5,214.5 C 305.785,213.555 321.785,217.555 336.5,226.5C 336.5,226.833 336.5,227.167 336.5,227.5C 335.167,271.833 335.167,316.167 336.5,360.5C 334.404,366.369 331.071,371.369 326.5,375.5C 326.5,359.167 326.5,342.833 326.5,326.5C 329.397,304.925 331.23,283.258 332,261.5C 329.55,247.907 323.05,236.907 312.5,228.5C 305.356,222.219 297.023,218.219 287.5,216.5C 287.833,215.833 288.167,215.167 288.5,214.5 Z"/></g>
<g><path style="opacity:1" fill="#50aefe" d="M 59.5,208.5 C 62.8333,211.5 66.1667,214.5 69.5,217.5C 77.8333,226.167 86.1667,234.833 94.5,243.5C 93.502,271.995 93.1687,300.662 93.5,329.5C 89.8346,322.828 86.6679,315.828 84,308.5C 78.0696,300.016 69.9029,296.683 59.5,298.5C 58.1667,268.5 58.1667,238.5 59.5,208.5 Z"/></g>
<g><path style="opacity:1" fill="#2b905a" d="M 336.5,227.5 C 341.887,230.554 345.887,234.887 348.5,240.5C 347.167,271.833 347.167,303.167 348.5,334.5C 347.111,338.944 345.444,343.277 343.5,347.5C 340.976,351.743 338.643,356.076 336.5,360.5C 335.167,316.167 335.167,271.833 336.5,227.5 Z"/></g>
<g><path style="opacity:1" fill="#75b22a" d="M 312.5,228.5 C 323.05,236.907 329.55,247.907 332,261.5C 331.23,283.258 329.397,304.925 326.5,326.5C 322.662,337.179 317.995,347.513 312.5,357.5C 312.5,314.5 312.5,271.5 312.5,228.5 Z"/></g>
<g><path style="opacity:1" fill="#238c60" d="M 348.5,240.5 C 354.643,248.873 357.643,258.373 357.5,269C 356.06,285.838 354.56,302.671 353,319.5C 352.253,324.843 350.753,329.843 348.5,334.5C 347.167,303.167 347.167,271.833 348.5,240.5 Z"/></g>
<g><path style="opacity:0.998" fill="#309cfd" d="M 169.5,243.5 C 171.091,245.633 173.091,247.299 175.5,248.5C 175.5,319.167 175.5,389.833 175.5,460.5C 166.953,457.891 158.953,454.225 151.5,449.5C 153.087,439.029 154.254,428.363 155,417.5C 156.416,401.252 151.916,386.918 141.5,374.5C 141.5,338.833 141.5,303.167 141.5,267.5C 144.301,266.265 146.968,264.765 149.5,263C 156.035,256.297 162.702,249.797 169.5,243.5 Z"/></g>
<g><path style="opacity:0.998" fill="#2696fc" d="M 175.5,248.5 C 182.441,250.757 189.441,252.924 196.5,255C 204.571,261.297 205.571,268.63 199.5,277C 191.134,281.697 185.301,288.531 182,297.5C 179.639,309.896 181.972,321.229 189,331.5C 195.067,336.414 201.234,341.081 207.5,345.5C 207.5,387.167 207.5,428.833 207.5,470.5C 196.438,468.144 185.771,464.811 175.5,460.5C 175.5,389.833 175.5,319.167 175.5,248.5 Z"/></g>
<g><path style="opacity:1" fill="#44a7fd" d="M 94.5,243.5 C 98.5,247.167 102.5,250.833 106.5,254.5C 111.395,261.403 117.728,266.403 125.5,269.5C 125.5,300.5 125.5,331.5 125.5,362.5C 118.841,359.503 112.841,355.503 107.5,350.5C 101.238,344.57 96.5718,337.57 93.5,329.5C 93.1687,300.662 93.502,271.995 94.5,243.5 Z"/></g>
<g><path style="opacity:1" fill="#3ca2fd" d="M 141.5,267.5 C 141.5,303.167 141.5,338.833 141.5,374.5C 136.426,370.084 131.092,366.084 125.5,362.5C 125.5,331.5 125.5,300.5 125.5,269.5C 131.008,269.849 136.341,269.183 141.5,267.5 Z"/></g>
<g><path style="opacity:1" fill="#218b61" d="M 460.5,268.5 C 461.167,288.5 461.833,308.5 462.5,328.5C 457.751,342.661 451.418,355.994 443.5,368.5C 443.831,343.661 443.498,318.994 442.5,294.5C 450.459,287.269 456.459,278.602 460.5,268.5 Z"/></g>
<g><path style="opacity:0.997" fill="#d9ecfc" d="M 473.5,287.5 C 475.5,287.833 477.5,288.167 479.5,288.5C 484.958,304.342 483.125,319.342 474,333.5C 470.635,330.633 467.469,327.633 464.5,324.5C 468.151,312.222 471.151,299.889 473.5,287.5 Z"/></g>
<g><path style="opacity:1" fill="#288e5c" d="M 442.5,294.5 C 443.498,318.994 443.831,343.661 443.5,368.5C 440.898,374.053 437.564,379.053 433.5,383.5C 433.831,356.661 433.498,329.995 432.5,303.5C 435.808,300.529 439.141,297.529 442.5,294.5 Z"/></g>
<g><path style="opacity:1" fill="#309256" d="M 431.5,303.5 C 431.833,303.5 432.167,303.5 432.5,303.5C 433.498,329.995 433.831,356.661 433.5,383.5C 429.117,390.936 423.784,397.603 417.5,403.5C 417.831,375.662 417.498,347.995 416.5,320.5C 420.442,313.892 425.442,308.225 431.5,303.5 Z"/></g>
<g><path style="opacity:0.997" fill="#bedffd" d="M 479.5,288.5 C 496.355,294.567 507.022,306.233 511.5,323.5C 511.5,324.167 511.5,324.833 511.5,325.5C 510.21,324.942 509.377,323.942 509,322.5C 462.916,368.083 417.416,414.083 372.5,460.5C 370.5,458.833 368.5,457.167 366.5,455.5C 364.833,453.167 362.833,451.167 360.5,449.5C 371.781,442.517 382.781,435.017 393.5,427C 400.337,421.329 406.671,415.162 412.5,408.5C 414.473,407.194 416.139,405.527 417.5,403.5C 423.784,397.603 429.117,390.936 433.5,383.5C 437.564,379.053 440.898,374.053 443.5,368.5C 451.418,355.994 457.751,342.661 462.5,328.5C 462.989,327.005 463.655,325.671 464.5,324.5C 467.469,327.633 470.635,330.633 474,333.5C 483.125,319.342 484.958,304.342 479.5,288.5 Z"/></g>
<g><path style="opacity:1" fill="#9cde2e" d="M 59.5,298.5 C 69.9029,296.683 78.0696,300.016 84,308.5C 86.6679,315.828 89.8346,322.828 93.5,329.5C 96.5718,337.57 101.238,344.57 107.5,350.5C 107.831,372.673 107.497,394.673 106.5,416.5C 95.3548,407.029 85.6882,396.362 77.5,384.5C 74.8817,379.587 71.5484,375.254 67.5,371.5C 61.8327,361.499 56.666,351.165 52,340.5C 49.3268,333.981 47.1602,327.314 45.5,320.5C 45.6508,310.18 50.3175,302.846 59.5,298.5 Z"/></g>
<g><path style="opacity:1" fill="#0d6fe6" d="M 213.5,305.5 C 223.228,315.532 234.895,322.198 248.5,325.5C 248.168,366.67 248.501,407.67 249.5,448.5C 244.574,451.534 240.074,450.868 236,446.5C 234.596,444.361 233.763,442.028 233.5,439.5C 237.95,424.927 242.117,410.261 246,395.5C 250.109,375.053 242.942,360.053 224.5,350.5C 220.392,349.473 216.392,348.14 212.5,346.5C 212.171,332.656 212.504,318.99 213.5,305.5 Z"/></g>
<g><path style="opacity:0.999" fill="#b7dcfe" d="M 511.5,325.5 C 511.5,331.5 511.5,337.5 511.5,343.5C 509.307,351.885 505.474,359.552 500,366.5C 467.5,399 435,431.5 402.5,464C 394.661,470.086 386.327,470.919 377.5,466.5C 375.833,464.5 374.167,462.5 372.5,460.5C 417.416,414.083 462.916,368.083 509,322.5C 509.377,323.942 510.21,324.942 511.5,325.5 Z"/></g>
<g><path style="opacity:1" fill="#1167dc" d="M 248.5,325.5 C 249.167,325.5 249.833,325.5 250.5,325.5C 268.141,335.455 274.974,350.455 271,370.5C 266.849,384.438 263.016,398.438 259.5,412.5C 258.194,419.502 261.194,423.835 268.5,425.5C 269.401,426.29 270.068,427.29 270.5,428.5C 269.118,431.394 267.118,433.894 264.5,436C 259.627,440.378 254.627,444.545 249.5,448.5C 248.501,407.67 248.168,366.67 248.5,325.5 Z"/></g>
<g><path style="opacity:1" fill="#3b9750" d="M 416.5,320.5 C 417.498,347.995 417.831,375.662 417.5,403.5C 416.139,405.527 414.473,407.194 412.5,408.5C 399.418,411.255 393.252,405.922 394,392.5C 398.116,385.266 401.949,377.933 405.5,370.5C 406.982,366.64 408.149,362.64 409,358.5C 407.797,345.027 410.297,332.36 416.5,320.5 Z"/></g>
<g><path style="opacity:1" fill="#3f994e" d="M 326.5,326.5 C 326.5,342.833 326.5,359.167 326.5,375.5C 325.833,376.5 325.167,377.5 324.5,378.5C 319.139,379.209 313.805,380.209 308.5,381.5C 304.839,383.243 301.006,384.576 297,385.5C 294.889,385.299 293.055,384.633 291.5,383.5C 292.552,383.649 293.552,383.483 294.5,383C 302.61,375.932 308.61,367.432 312.5,357.5C 317.995,347.513 322.662,337.179 326.5,326.5 Z"/></g>
<g><path style="opacity:0.988" fill="#fc948c" d="M 28.5,345.5 C 27.5146,362.756 27.1813,380.09 27.5,397.5C 28.5,397.5 29.5,397.5 30.5,397.5C 28.0521,398.473 25.3854,398.806 22.5,398.5C 20.901,398.768 19.5676,398.434 18.5,397.5C 18.1816,380.423 18.5149,363.423 19.5,346.5C 22.3915,345.597 25.3915,345.264 28.5,345.5 Z"/></g>
<g><path style="opacity:0.998" fill="#1c91fc" d="M 207.5,345.5 C 209.042,346.301 210.708,346.634 212.5,346.5C 216.392,348.14 220.392,349.473 224.5,350.5C 224.5,391.167 224.5,431.833 224.5,472.5C 223.167,472.5 221.833,472.5 220.5,472.5C 216.076,472.348 211.743,471.681 207.5,470.5C 207.5,428.833 207.5,387.167 207.5,345.5 Z"/></g>
<g><path style="opacity:0.984" fill="#fc8586" d="M 28.5,345.5 C 34.1923,346.515 39.1923,348.848 43.5,352.5C 43.1713,365.344 43.5046,378.011 44.5,390.5C 43.1092,392.89 41.1092,394.557 38.5,395.5C 35.8877,396.371 33.221,397.037 30.5,397.5C 29.5,397.5 28.5,397.5 27.5,397.5C 27.1813,380.09 27.5146,362.756 28.5,345.5 Z"/></g>
<g><path style="opacity:0.987" fill="#fda692" d="M 19.5,346.5 C 18.5149,363.423 18.1816,380.423 18.5,397.5C 8.9074,394.907 2.57406,388.907 -0.5,379.5C -0.5,374.5 -0.5,369.5 -0.5,364.5C 3.30221,355.367 9.96888,349.367 19.5,346.5 Z"/></g>
<g><path style="opacity:1" fill="#0f71e7" d="M 343.5,347.5 C 343.5,376.5 343.5,405.5 343.5,434.5C 334.71,440.934 325.377,446.601 315.5,451.5C 314.505,456.792 314.172,462.125 314.5,467.5C 311.254,468.054 308.254,469.054 305.5,470.5C 282.883,475.235 260.216,476.568 237.5,474.5C 252.344,472.801 267.011,469.801 281.5,465.5C 281.179,460.305 281.513,455.305 282.5,450.5C 285.187,450.664 287.854,450.497 290.5,450C 292.833,448.333 295.167,446.667 297.5,445C 304.939,444.93 312.272,444.263 319.5,443C 321.049,441.786 322.215,440.286 323,438.5C 323.154,434.902 324.154,431.569 326,428.5C 337.86,418.092 341.86,405.092 338,389.5C 335.384,383.372 330.884,379.706 324.5,378.5C 325.167,377.5 325.833,376.5 326.5,375.5C 331.071,371.369 334.404,366.369 336.5,360.5C 338.643,356.076 340.976,351.743 343.5,347.5 Z"/></g>
<g><path style="opacity:1" fill="#96d62c" d="M 107.5,350.5 C 112.841,355.503 118.841,359.503 125.5,362.5C 131.092,366.084 136.426,370.084 141.5,374.5C 151.916,386.918 156.416,401.252 155,417.5C 154.254,428.363 153.087,439.029 151.5,449.5C 149.938,449.267 148.605,448.6 147.5,447.5C 140.439,442.446 133.106,437.779 125.5,433.5C 118.869,428.204 112.535,422.537 106.5,416.5C 107.497,394.673 107.831,372.673 107.5,350.5 Z"/></g>
<g><path style="opacity:0.998" fill="#148cfc" d="M 224.5,350.5 C 242.942,360.053 250.109,375.053 246,395.5C 242.117,410.261 237.95,424.927 233.5,439.5C 233.763,442.028 234.596,444.361 236,446.5C 240.074,450.868 244.574,451.534 249.5,448.5C 254.627,444.545 259.627,440.378 264.5,436C 267.118,433.894 269.118,431.394 270.5,428.5C 270.892,434.013 272.392,439.347 275,444.5C 276.857,447.2 279.357,448.866 282.5,449.5C 282.5,449.833 282.5,450.167 282.5,450.5C 281.513,455.305 281.179,460.305 281.5,465.5C 267.011,469.801 252.344,472.801 237.5,474.5C 231.596,474.679 225.929,474.012 220.5,472.5C 221.833,472.5 223.167,472.5 224.5,472.5C 224.5,431.833 224.5,391.167 224.5,350.5 Z"/></g>
<g><path style="opacity:0.959" fill="#fb7b6d" d="M 43.5,352.5 C 48.3132,357.123 51.3132,362.789 52.5,369.5C 51.5879,374.39 50.5879,379.39 49.5,384.5C 48.5569,387.109 46.8903,389.109 44.5,390.5C 43.5046,378.011 43.1713,365.344 43.5,352.5 Z"/></g>
<g><path style="opacity:0.976" fill="#f7c215" d="M 52.5,369.5 C 57.5157,370.058 62.5157,370.725 67.5,371.5C 71.5484,375.254 74.8817,379.587 77.5,384.5C 75.7541,386.252 73.7541,387.585 71.5,388.5C 64.0574,387.593 56.724,386.26 49.5,384.5C 50.5879,379.39 51.5879,374.39 52.5,369.5 Z"/></g>
<g><path style="opacity:1" fill="#93ccfd" d="M 324.5,378.5 C 330.884,379.706 335.384,383.372 338,389.5C 341.86,405.092 337.86,418.092 326,428.5C 324.154,431.569 323.154,434.902 323,438.5C 322.215,440.286 321.049,441.786 319.5,443C 312.272,444.263 304.939,444.93 297.5,445C 295.167,446.667 292.833,448.333 290.5,450C 287.854,450.497 285.187,450.664 282.5,450.5C 282.5,450.167 282.5,449.833 282.5,449.5C 284.167,449.5 285.833,449.5 287.5,449.5C 287.5,447.833 287.5,446.167 287.5,444.5C 291.35,444.822 294.517,443.489 297,440.5C 297.895,436.79 298.895,433.123 300,429.5C 314.62,415.596 317.453,399.596 308.5,381.5C 313.805,380.209 319.139,379.209 324.5,378.5 Z"/></g>
<g><path style="opacity:1" fill="#b7dcfd" d="M 308.5,381.5 C 317.453,399.596 314.62,415.596 300,429.5C 298.895,433.123 297.895,436.79 297,440.5C 294.517,443.489 291.35,444.822 287.5,444.5C 287.5,446.167 287.5,447.833 287.5,449.5C 285.833,449.5 284.167,449.5 282.5,449.5C 279.357,448.866 276.857,447.2 275,444.5C 272.392,439.347 270.892,434.013 270.5,428.5C 270.068,427.29 269.401,426.29 268.5,425.5C 265.054,421.163 263.388,416.163 263.5,410.5C 263.34,408.801 263.506,407.134 264,405.5C 268.79,399.041 273.957,392.874 279.5,387C 281.577,385.295 283.91,384.128 286.5,383.5C 288.167,383.5 289.833,383.5 291.5,383.5C 293.055,384.633 294.889,385.299 297,385.5C 301.006,384.576 304.839,383.243 308.5,381.5 Z"/></g>
<g><path style="opacity:0.999" fill="#dceefd" d="M 77.5,384.5 C 85.6882,396.362 95.3548,407.029 106.5,416.5C 112.535,422.537 118.869,428.204 125.5,433.5C 111.925,465.747 89.5921,490.08 58.5,506.5C 58.8317,471.663 58.4984,436.996 57.5,402.5C 61.8604,397.473 66.5271,392.806 71.5,388.5C 73.7541,387.585 75.7541,386.252 77.5,384.5 Z"/></g>
<g><path style="opacity:1" fill="#f5dc12" d="M 38.5,395.5 C 39.4491,402.912 40.7825,410.245 42.5,417.5C 38.864,423.798 34.1973,429.132 28.5,433.5C 26.5,421.833 24.5,410.167 22.5,398.5C 25.3854,398.806 28.0521,398.473 30.5,397.5C 33.221,397.037 35.8877,396.371 38.5,395.5 Z"/></g>
<g><path style="opacity:0.995" fill="#e3f2fe" d="M 57.5,402.5 C 58.4984,436.996 58.8317,471.663 58.5,506.5C 55.3037,507.929 52.3037,509.595 49.5,511.5C 43.8333,511.5 38.1667,511.5 32.5,511.5C 20.9491,509.472 11.1158,504.139 3,495.5C 0.0856639,488.913 0.0856639,482.246 3,475.5C 9.7398,460.339 18.2398,446.339 28.5,433.5C 34.1973,429.132 38.864,423.798 42.5,417.5C 47.1396,412.194 52.1396,407.194 57.5,402.5 Z"/></g>
<g><path style="opacity:1" fill="#214dbe" d="M 405.5,370.5 C 401.949,377.933 398.116,385.266 394,392.5C 393.252,405.922 399.418,411.255 412.5,408.5C 406.671,415.162 400.337,421.329 393.5,427C 382.781,435.017 371.781,442.517 360.5,449.5C 357.378,450.561 354.378,451.895 351.5,453.5C 351.5,445.5 351.5,437.5 351.5,429.5C 357.167,424.167 362.833,418.833 368.5,413.5C 373.873,409.129 378.539,404.129 382.5,398.5C 388.901,391.762 394.568,384.429 399.5,376.5C 400.976,374.231 402.476,371.898 404,369.5C 404.383,370.056 404.883,370.389 405.5,370.5 Z"/></g>
<g><path style="opacity:1" fill="#6eae46" d="M 263.5,410.5 C 263.388,416.163 265.054,421.163 268.5,425.5C 261.194,423.835 258.194,419.502 259.5,412.5C 259.369,413.239 259.536,413.906 260,414.5C 261.405,413.269 262.571,411.936 263.5,410.5 Z"/></g>
<g><path style="opacity:1" fill="#bbddfd" d="M 125.5,433.5 C 133.106,437.779 140.439,442.446 147.5,447.5C 126.062,480.947 96.062,502.281 57.5,511.5C 54.8333,511.5 52.1667,511.5 49.5,511.5C 52.3037,509.595 55.3037,507.929 58.5,506.5C 89.5921,490.08 111.925,465.747 125.5,433.5 Z"/></g>
<g><path style="opacity:1" fill="#1d59cc" d="M 351.5,429.5 C 351.5,437.5 351.5,445.5 351.5,453.5C 346.342,455.656 341.342,457.989 336.5,460.5C 329.167,462.833 321.833,465.167 314.5,467.5C 314.172,462.125 314.505,456.792 315.5,451.5C 325.377,446.601 334.71,440.934 343.5,434.5C 346.184,432.807 348.851,431.14 351.5,429.5 Z"/></g>
<g><path style="opacity:1" fill="#eb1f59" d="M 360.5,449.5 C 362.833,451.167 364.833,453.167 366.5,455.5C 359.869,462.632 353.036,469.632 346,476.5C 345.79,478.058 345.29,479.391 344.5,480.5C 344.665,477.15 344.498,473.817 344,470.5C 343.208,467.894 341.708,465.894 339.5,464.5C 338.5,463.167 337.5,461.833 336.5,460.5C 341.342,457.989 346.342,455.656 351.5,453.5C 354.378,451.895 357.378,450.561 360.5,449.5 Z"/></g>
<g><path style="opacity:0.99" fill="#fa414e" d="M 336.5,460.5 C 337.5,461.833 338.5,463.167 339.5,464.5C 333.167,471.5 326.5,478.167 319.5,484.5C 314.5,480.167 309.833,475.5 305.5,470.5C 308.254,469.054 311.254,468.054 314.5,467.5C 321.833,465.167 329.167,462.833 336.5,460.5 Z"/></g>
<g><path style="opacity:1" fill="#e61965" d="M 366.5,455.5 C 368.5,457.167 370.5,458.833 372.5,460.5C 374.167,462.5 375.833,464.5 377.5,466.5C 376.677,468.987 375.677,471.321 374.5,473.5C 374.649,472.448 374.483,471.448 374,470.5C 362.244,481.753 351.077,493.42 340.5,505.5C 336.167,501.833 332.167,497.833 328.5,493.5C 337.394,493.61 342.727,489.277 344.5,480.5C 345.29,479.391 345.79,478.058 346,476.5C 353.036,469.632 359.869,462.632 366.5,455.5 Z"/></g>
<g><path style="opacity:0.989" fill="#fa2e3e" d="M 339.5,464.5 C 341.708,465.894 343.208,467.894 344,470.5C 344.498,473.817 344.665,477.15 344.5,480.5C 342.727,489.277 337.394,493.61 328.5,493.5C 325.167,490.833 322.167,487.833 319.5,484.5C 326.5,478.167 333.167,471.5 339.5,464.5 Z"/></g>
<g><path style="opacity:1" fill="#e1146d" d="M 374.5,473.5 C 371.119,484.268 366.619,494.602 361,504.5C 359.258,507.746 356.758,510.079 353.5,511.5C 350.833,511.5 348.167,511.5 345.5,511.5C 343.833,509.5 342.167,507.5 340.5,505.5C 351.077,493.42 362.244,481.753 374,470.5C 374.483,471.448 374.649,472.448 374.5,473.5 Z"/></g>
</svg>
