<?xml version="1.0" encoding="UTF-8"?>
<!DOCTYPE svg PUBLIC "-//W3C//DTD SVG 1.1//EN" "http://www.w3.org/Graphics/SVG/1.1/DTD/svg11.dtd">
<svg xmlns="http://www.w3.org/2000/svg" version="1.1" width="512px" height="512px" style="shape-rendering:geometricPrecision; text-rendering:geometricPrecision; image-rendering:optimizeQuality; fill-rule:evenodd; clip-rule:evenodd" xmlns:xlink="http://www.w3.org/1999/xlink">
<g><path style="opacity:0.982" fill="#2ea8e6" d="M 255.5,50.5 C 255.5,60.8333 255.5,71.1667 255.5,81.5C 183.8,84.8274 133.466,119.161 104.5,184.5C 104.914,175.087 100.581,169.254 91.5,167C 87.5598,165.985 83.5598,165.485 79.5,165.5C 103.89,111.955 144.223,76.1218 200.5,58C 218.452,52.6746 236.785,50.1746 255.5,50.5 Z"/></g>
<g><path style="opacity:1" fill="#1794c6" d="M 255.5,50.5 C 325.882,52.2626 380.382,82.2626 419,140.5C 424.232,148.298 428.399,156.631 431.5,165.5C 424.78,165.52 418.447,167.02 412.5,170C 408.423,173.985 406.423,178.819 406.5,184.5C 377.522,119.156 327.188,84.823 255.5,81.5C 255.5,71.1667 255.5,60.8333 255.5,50.5 Z"/></g>
<g><path style="opacity:0.995" fill="#2ec4b6" d="M 255.5,116.5 C 255.5,153.5 255.5,190.5 255.5,227.5C 253.901,227.232 252.568,227.566 251.5,228.5C 239.346,234.513 237.346,243.013 245.5,254C 248.336,256.584 251.669,257.751 255.5,257.5C 256.167,257.5 256.833,257.5 257.5,257.5C 255.516,294.279 254.849,331.279 255.5,368.5C 244.071,368.425 232.738,367.592 221.5,366C 205.5,375.333 189.5,384.667 173.5,394C 162.868,398.559 155.035,395.726 150,385.5C 149.333,382.167 149.333,378.833 150,375.5C 154.245,360.022 158.411,344.522 162.5,329C 129.779,290.39 121.279,246.89 137,198.5C 153.973,155.859 184.806,129.359 229.5,119C 238.091,117.343 246.758,116.509 255.5,116.5 Z"/></g>
<g><path style="opacity:1" fill="#2ab5a4" d="M 255.5,116.5 C 302.587,117.785 338.754,138.118 364,177.5C 384.64,215.348 386.973,254.348 371,294.5C 347.278,341.959 308.778,366.626 255.5,368.5C 254.849,331.279 255.516,294.279 257.5,257.5C 265.735,255.929 270.069,250.929 270.5,242.5C 269.854,233.187 264.854,228.187 255.5,227.5C 255.5,190.5 255.5,153.5 255.5,116.5 Z"/></g>
<g><path style="opacity:1" fill="#0d647f" d="M 79.5,165.5 C 83.5598,165.485 87.5598,165.985 91.5,167C 100.581,169.254 104.914,175.087 104.5,184.5C 87.7743,232.005 91.2743,278.005 115,322.5C 118.234,335.184 113.401,343.018 100.5,346C 97.5682,346.953 94.5682,347.453 91.5,347.5C 88.1066,347.938 85.1066,347.105 82.5,345C 65.5876,328.005 56.0876,307.505 54,283.5C 53.3333,258.167 53.3333,232.833 54,207.5C 56.5094,192.802 61.6761,179.135 69.5,166.5C 72.728,165.586 76.0613,165.253 79.5,165.5 Z"/></g>
<g><path style="opacity:1" fill="#0d647f" d="M 431.5,165.5 C 434.939,165.253 438.272,165.586 441.5,166.5C 449.448,179.071 454.614,192.738 457,207.5C 457.912,236.19 457.579,264.857 456,293.5C 451.835,314.003 442.335,331.503 427.5,346C 424.986,347.252 422.32,347.752 419.5,347.5C 418.5,347.5 417.5,347.5 416.5,347.5C 410.422,345.522 404.588,342.856 399,339.5C 395.878,335.026 394.711,330.026 395.5,324.5C 419.35,279.443 423.017,232.777 406.5,184.5C 406.423,178.819 408.423,173.985 412.5,170C 418.447,167.02 424.78,165.52 431.5,165.5 Z"/></g>
<g><path style="opacity:1" fill="#176f93" d="M 69.5,166.5 C 61.6761,179.135 56.5094,192.802 54,207.5C 53.3333,232.833 53.3333,258.167 54,283.5C 56.0876,307.505 65.5876,328.005 82.5,345C 85.1066,347.105 88.1066,347.938 91.5,347.5C 54.384,352.353 27.884,337.686 12,303.5C 10.198,298.625 8.8647,293.625 8,288.5C 7.33333,267.5 7.33333,246.5 8,225.5C 15.3306,192.001 35.8306,172.334 69.5,166.5 Z"/></g>
<g><path style="opacity:1" fill="#176f93" d="M 441.5,166.5 C 475.169,172.334 495.669,192.001 503,225.5C 503.667,246.5 503.667,267.5 503,288.5C 494.213,325.784 470.713,346.117 432.5,349.5C 427.993,349.024 423.66,348.357 419.5,347.5C 422.32,347.752 424.986,347.252 427.5,346C 442.335,331.503 451.835,314.003 456,293.5C 457.579,264.857 457.912,236.19 457,207.5C 454.614,192.738 449.448,179.071 441.5,166.5 Z"/></g>
<g><path style="opacity:1" fill="#e3e8f1" d="M 201.5,227.5 C 218.417,228.679 223.584,237.012 217,252.5C 209.303,259.098 201.636,259.098 194,252.5C 187.808,241.552 190.308,233.219 201.5,227.5 Z"/></g>
<g><path style="opacity:1" fill="#e3e8f1" d="M 251.5,228.5 C 252.833,228.5 254.167,228.5 255.5,228.5C 255.5,238.167 255.5,247.833 255.5,257.5C 251.669,257.751 248.336,256.584 245.5,254C 237.346,243.013 239.346,234.513 251.5,228.5 Z"/></g>
<g><path style="opacity:1" fill="#cdd6e5" d="M 251.5,228.5 C 252.568,227.566 253.901,227.232 255.5,227.5C 264.854,228.187 269.854,233.187 270.5,242.5C 270.069,250.929 265.735,255.929 257.5,257.5C 256.833,257.5 256.167,257.5 255.5,257.5C 255.5,247.833 255.5,238.167 255.5,228.5C 254.167,228.5 252.833,228.5 251.5,228.5 Z"/></g>
<g><path style="opacity:1" fill="#ccd6e5" d="M 301.5,227.5 C 318.417,228.679 323.584,237.012 317,252.5C 309.303,259.098 301.636,259.098 294,252.5C 287.823,241.529 290.323,233.196 301.5,227.5 Z"/></g>
<g><path style="opacity:1" fill="#1794c6" d="M 395.5,324.5 C 394.711,330.026 395.878,335.026 399,339.5C 404.588,342.856 410.422,345.522 416.5,347.5C 394.071,383.07 363.071,408.237 323.5,423C 311.328,427.226 298.995,430.726 286.5,433.5C 289.396,422.718 289.063,412.051 285.5,401.5C 333.235,391.401 369.901,365.734 395.5,324.5 Z"/></g>
<g><path style="opacity:1" fill="#177094" d="M 253.5,377.5 C 251.5,377.5 249.5,377.5 247.5,377.5C 247.5,405.167 247.5,432.833 247.5,460.5C 227.019,459.844 213.519,449.844 207,430.5C 202.6,412.366 207.434,397.2 221.5,385C 231.294,378.079 241.961,375.579 253.5,377.5 Z"/></g>
<g><path style="opacity:1" fill="#0d647f" d="M 253.5,377.5 C 266.223,378.778 276.057,384.778 283,395.5C 284.122,397.407 284.955,399.407 285.5,401.5C 289.063,412.051 289.396,422.718 286.5,433.5C 279.522,451.159 266.522,460.159 247.5,460.5C 247.5,432.833 247.5,405.167 247.5,377.5C 249.5,377.5 251.5,377.5 253.5,377.5 Z"/></g>
</svg>
