<?xml version="1.0" encoding="UTF-8"?>
<!DOCTYPE svg PUBLIC "-//W3C//DTD SVG 1.1//EN" "http://www.w3.org/Graphics/SVG/1.1/DTD/svg11.dtd">
<svg xmlns="http://www.w3.org/2000/svg" version="1.1" width="512px" height="512px" style="shape-rendering:geometricPrecision; text-rendering:geometricPrecision; image-rendering:optimizeQuality; fill-rule:evenodd; clip-rule:evenodd" xmlns:xlink="http://www.w3.org/1999/xlink">
<g><path style="opacity:1" fill="#fec043" d="M 242.5,-0.5 C 243.833,-0.5 245.167,-0.5 246.5,-0.5C 223.489,47.5546 213.823,98.2212 217.5,151.5C 216.624,173.874 204.957,184.707 182.5,184C 175.051,181.775 168.718,177.775 163.5,172C 157.049,169.822 152.882,171.989 151,178.5C 143.494,198.18 138.994,218.513 137.5,239.5C 134.786,238.137 132.119,238.304 129.5,240C 87.0405,277.981 73.8739,324.481 90,379.5C 95.6074,396.059 103.774,411.059 114.5,424.5C 91.3087,400.485 72.8087,373.152 59,342.5C 52.6534,324.737 49.3201,306.404 49,287.5C 44.6868,242.033 52.8535,199.033 73.5,158.5C 81.7323,143.429 92.0656,129.929 104.5,118C 106.971,117.294 109.305,117.627 111.5,119C 113.829,124.654 117.162,129.654 121.5,134C 132.099,141.273 142.766,141.273 153.5,134C 156.762,131.408 159.262,128.241 161,124.5C 169.188,97.1275 181.355,71.7942 197.5,48.5C 203.803,40.5243 210.136,32.5243 216.5,24.5C 224.56,15.4383 233.226,7.10501 242.5,-0.5 Z"/></g>
<g><path style="opacity:1" fill="#fecc6b" d="M 246.5,-0.5 C 248.167,-0.5 249.833,-0.5 251.5,-0.5C 253.475,0.646381 254.975,2.31305 256,4.5C 257.361,10.1397 258.528,15.8063 259.5,21.5C 261.443,27.6624 263.776,33.6624 266.5,39.5C 272.243,49.9832 278.743,59.9832 286,69.5C 307.577,93.8409 328.077,119.008 347.5,145C 354.473,148.282 361.473,148.282 368.5,145C 375.5,136.667 382.5,128.333 389.5,120C 394.093,116.449 398.26,116.949 402,121.5C 404.837,130.841 408.504,139.841 413,148.5C 428.137,171.778 441.971,195.778 454.5,220.5C 460.404,235.923 463.07,251.923 462.5,268.5C 464.524,326.472 444.857,375.472 403.5,415.5C 425.555,382.089 432.388,345.755 424,306.5C 416.506,278.035 400.839,255.368 377,238.5C 374.968,238.858 373.134,239.692 371.5,241C 359.045,252.117 348.045,264.45 338.5,278C 336.888,278.72 335.388,278.554 334,277.5C 326.214,236.468 311.548,198.135 290,162.5C 284.632,154.405 278.798,146.739 272.5,139.5C 268.899,131.043 263.399,129.377 256,134.5C 253.967,147.626 249.634,159.959 243,171.5C 226.333,193.5 209.667,215.5 193,237.5C 185.415,250.168 179.915,263.668 176.5,278C 175.167,278.667 173.833,278.667 172.5,278C 162.359,263.697 150.693,250.863 137.5,239.5C 138.994,218.513 143.494,198.18 151,178.5C 152.882,171.989 157.049,169.822 163.5,172C 168.718,177.775 175.051,181.775 182.5,184C 204.957,184.707 216.624,173.874 217.5,151.5C 213.823,98.2212 223.489,47.5546 246.5,-0.5 Z"/></g>
<g><path style="opacity:0.987" fill="#022d4e" d="M 259.5,21.5 C 340.334,24.3305 405.168,57.6639 454,121.5C 504.622,195.685 514.288,275.018 483,359.5C 447.359,439.794 386.526,489.294 300.5,508C 292.696,509.233 285.029,510.399 277.5,511.5C 262.833,511.5 248.167,511.5 233.5,511.5C 155.465,502.582 94.2987,465.915 50,401.5C 5.56727,329.17 -1.76607,253.17 28,173.5C 64.4551,90.553 127.288,40.8863 216.5,24.5C 210.136,32.5243 203.803,40.5243 197.5,48.5C 147.592,64.3687 109.092,94.7021 82,139.5C 78.5998,145.629 75.7665,151.963 73.5,158.5C 52.8535,199.033 44.6868,242.033 49,287.5C 49.3201,306.404 52.6534,324.737 59,342.5C 72.8087,373.152 91.3087,400.485 114.5,424.5C 138.956,450.231 168.956,465.731 204.5,471C 216.036,473.529 227.702,474.696 239.5,474.5C 273.869,477.236 307.535,473.069 340.5,462C 365.933,452.386 386.933,436.886 403.5,415.5C 444.857,375.472 464.524,326.472 462.5,268.5C 463.07,251.923 460.404,235.923 454.5,220.5C 444.755,143.935 405.088,89.1018 335.5,56C 313.486,46.3639 290.486,40.8639 266.5,39.5C 263.776,33.6624 261.443,27.6624 259.5,21.5 Z"/></g>
<g><path style="opacity:1" fill="#033f68" d="M 266.5,39.5 C 290.486,40.8639 313.486,46.3639 335.5,56C 405.088,89.1018 444.755,143.935 454.5,220.5C 441.971,195.778 428.137,171.778 413,148.5C 408.504,139.841 404.837,130.841 402,121.5C 398.26,116.949 394.093,116.449 389.5,120C 382.5,128.333 375.5,136.667 368.5,145C 361.473,148.282 354.473,148.282 347.5,145C 328.077,119.008 307.577,93.8409 286,69.5C 278.743,59.9832 272.243,49.9832 266.5,39.5 Z"/></g>
<g><path style="opacity:1" fill="#053f68" d="M 197.5,48.5 C 181.355,71.7942 169.188,97.1275 161,124.5C 159.262,128.241 156.762,131.408 153.5,134C 142.766,141.273 132.099,141.273 121.5,134C 117.162,129.654 113.829,124.654 111.5,119C 109.305,117.627 106.971,117.294 104.5,118C 92.0656,129.929 81.7323,143.429 73.5,158.5C 75.7665,151.963 78.5998,145.629 82,139.5C 109.092,94.7021 147.592,64.3687 197.5,48.5 Z"/></g>
<g><path style="opacity:1" fill="#fe2ba9" d="M 272.5,139.5 C 274.093,156.16 272.259,172.494 267,188.5C 257.69,222.474 243.023,253.808 223,282.5C 218.818,287.918 213.485,291.585 207,293.5C 203.323,292.078 199.823,290.244 196.5,288C 194.029,287.294 191.695,287.627 189.5,289C 184.46,297.909 180.127,307.076 176.5,316.5C 171.448,313.643 166.114,311.31 160.5,309.5C 152.873,312.075 151.539,316.575 156.5,323C 161.702,326.101 167.035,328.934 172.5,331.5C 172.577,335.215 172.244,338.881 171.5,342.5C 157.323,342.171 143.323,342.504 129.5,343.5C 121.907,347.738 121.573,352.571 128.5,358C 142.829,358.5 157.163,358.667 171.5,358.5C 171.5,362.5 171.5,366.5 171.5,370.5C 166.035,373.066 160.702,375.899 155.5,379C 151.596,385.881 153.43,390.048 161,391.5C 165.471,390.512 169.637,388.845 173.5,386.5C 181.008,415.02 195.342,439.52 216.5,460C 224.237,467.035 233.237,471.702 243.5,474C 242.207,474.49 240.873,474.657 239.5,474.5C 227.702,474.696 216.036,473.529 204.5,471C 168.956,465.731 138.956,450.231 114.5,424.5C 103.774,411.059 95.6074,396.059 90,379.5C 73.8739,324.481 87.0405,277.981 129.5,240C 132.119,238.304 134.786,238.137 137.5,239.5C 150.693,250.863 162.359,263.697 172.5,278C 173.833,278.667 175.167,278.667 176.5,278C 179.915,263.668 185.415,250.168 193,237.5C 209.667,215.5 226.333,193.5 243,171.5C 249.634,159.959 253.967,147.626 256,134.5C 263.399,129.377 268.899,131.043 272.5,139.5 Z"/></g>
<g><path style="opacity:1" fill="#fe4fb7" d="M 272.5,139.5 C 278.798,146.739 284.632,154.405 290,162.5C 311.548,198.135 326.214,236.468 334,277.5C 335.388,278.554 336.888,278.72 338.5,278C 348.045,264.45 359.045,252.117 371.5,241C 373.134,239.692 374.968,238.858 377,238.5C 400.839,255.368 416.506,278.035 424,306.5C 432.388,345.755 425.555,382.089 403.5,415.5C 386.933,436.886 365.933,452.386 340.5,462C 307.535,473.069 273.869,477.236 239.5,474.5C 240.873,474.657 242.207,474.49 243.5,474C 233.237,471.702 224.237,467.035 216.5,460C 195.342,439.52 181.008,415.02 173.5,386.5C 176.77,384.526 180.103,382.526 183.5,380.5C 187.763,371.855 185.096,367.689 175.5,368C 174.307,369.095 172.973,369.928 171.5,370.5C 171.5,366.5 171.5,362.5 171.5,358.5C 177.405,355.813 178.905,351.48 176,345.5C 175.25,344.874 174.416,344.374 173.5,344C 158.837,343.5 144.17,343.333 129.5,343.5C 143.323,342.504 157.323,342.171 171.5,342.5C 172.244,338.881 172.577,335.215 172.5,331.5C 182.101,336.067 186.268,333.067 185,322.5C 182.363,320.109 179.53,318.109 176.5,316.5C 180.127,307.076 184.46,297.909 189.5,289C 191.695,287.627 194.029,287.294 196.5,288C 199.823,290.244 203.323,292.078 207,293.5C 213.485,291.585 218.818,287.918 223,282.5C 243.023,253.808 257.69,222.474 267,188.5C 272.259,172.494 274.093,156.16 272.5,139.5 Z"/></g>
<g><path style="opacity:1" fill="#fffcfe" d="M 270.5,259.5 C 272.903,259.393 274.736,260.393 276,262.5C 276.5,289.498 276.667,316.498 276.5,343.5C 287.172,343.333 297.839,343.5 308.5,344C 311.2,344.949 312.033,346.783 311,349.5C 288.218,380.616 265.051,411.45 241.5,442C 238.975,442.896 236.808,442.396 235,440.5C 234.5,413.502 234.333,386.502 234.5,359.5C 223.828,359.667 213.161,359.5 202.5,359C 199.913,357.475 199.08,355.308 200,352.5C 223.52,321.432 247.02,290.432 270.5,259.5 Z"/></g>
<g><path style="opacity:1" fill="#ff92d3" d="M 176.5,316.5 C 179.53,318.109 182.363,320.109 185,322.5C 186.268,333.067 182.101,336.067 172.5,331.5C 167.035,328.934 161.702,326.101 156.5,323C 151.539,316.575 152.873,312.075 160.5,309.5C 166.114,311.31 171.448,313.643 176.5,316.5 Z"/></g>
<g><path style="opacity:1" fill="#ff92d3" d="M 348.5,309.5 C 357.298,309.085 360.298,313.085 357.5,321.5C 350.997,325.586 344.33,329.419 337.5,333C 327.842,334.515 324.675,330.681 328,321.5C 334.978,317.6 341.812,313.6 348.5,309.5 Z"/></g>
<g><path style="opacity:1" fill="#ff92d3" d="M 129.5,343.5 C 144.17,343.333 158.837,343.5 173.5,344C 174.416,344.374 175.25,344.874 176,345.5C 178.905,351.48 177.405,355.813 171.5,358.5C 157.163,358.667 142.829,358.5 128.5,358C 121.573,352.571 121.907,347.738 129.5,343.5 Z"/></g>
<g><path style="opacity:1" fill="#ff92d3" d="M 338.5,343.5 C 353.837,343.333 369.17,343.5 384.5,344C 388.124,346.161 389.291,349.328 388,353.5C 387.167,355.667 385.667,357.167 383.5,358C 368.833,358.667 354.167,358.667 339.5,358C 333.205,353.663 332.872,348.829 338.5,343.5 Z"/></g>
<g><path style="opacity:1" fill="#ff92d3" d="M 173.5,386.5 C 169.637,388.845 165.471,390.512 161,391.5C 153.43,390.048 151.596,385.881 155.5,379C 160.702,375.899 166.035,373.066 171.5,370.5C 172.973,369.928 174.307,369.095 175.5,368C 185.096,367.689 187.763,371.855 183.5,380.5C 180.103,382.526 176.77,384.526 173.5,386.5 Z"/></g>
<g><path style="opacity:1" fill="#ff92d3" d="M 330.5,367.5 C 332.527,367.338 334.527,367.505 336.5,368C 343.912,371.788 351.079,375.955 358,380.5C 359.888,389.279 356.388,392.779 347.5,391C 341.5,387.667 335.5,384.333 329.5,381C 325.285,376.134 325.618,371.634 330.5,367.5 Z"/></g>
</svg>
