<?xml version="1.0" encoding="UTF-8"?>
<!DOCTYPE svg PUBLIC "-//W3C//DTD SVG 1.1//EN" "http://www.w3.org/Graphics/SVG/1.1/DTD/svg11.dtd">
<svg xmlns="http://www.w3.org/2000/svg" version="1.1" width="512px" height="512px" style="shape-rendering:geometricPrecision; text-rendering:geometricPrecision; image-rendering:optimizeQuality; fill-rule:evenodd; clip-rule:evenodd" xmlns:xlink="http://www.w3.org/1999/xlink">
<g><path style="opacity:0.999" fill="#03cdf9" d="M 235.5,0.5 C 235.5,1.16667 235.833,1.5 236.5,1.5C 237.833,102.167 237.833,202.833 236.5,303.5C 231.523,303.419 226.857,302.419 222.5,300.5C 223.833,300.5 225.167,300.5 226.5,300.5C 226.831,201.096 226.498,101.763 225.5,2.5C 228.865,1.9604 232.198,1.29373 235.5,0.5 Z"/></g>
<g><path style="opacity:0.997" fill="#15b3ef" d="M 239.5,-0.5 C 250.167,-0.5 260.833,-0.5 271.5,-0.5C 276.56,0.579117 281.56,1.91245 286.5,3.5C 284.55,8.73512 283.883,14.4018 284.5,20.5C 283.391,20.4431 282.391,20.1098 281.5,19.5C 275.154,15.3256 268.488,11.659 261.5,8.5C 253.455,5.15199 245.122,2.81865 236.5,1.5C 235.833,1.5 235.5,1.16667 235.5,0.5C 237.099,0.767809 238.432,0.434475 239.5,-0.5 Z"/></g>
<g><path style="opacity:1" fill="#05c9f8" d="M 236.5,1.5 C 245.122,2.81865 253.455,5.15199 261.5,8.5C 261.5,104.167 261.5,199.833 261.5,295.5C 253.536,299.243 245.203,301.909 236.5,303.5C 237.833,202.833 237.833,102.167 236.5,1.5 Z"/></g>
<g><path style="opacity:1" fill="#08c4f6" d="M 261.5,8.5 C 268.488,11.659 275.154,15.3256 281.5,19.5C 281.5,108.167 281.5,196.833 281.5,285.5C 275.075,289.379 268.408,292.713 261.5,295.5C 261.5,199.833 261.5,104.167 261.5,8.5 Z"/></g>
<g><path style="opacity:0.998" fill="#0ad1fa" d="M 225.5,2.5 C 226.498,101.763 226.831,201.096 226.5,300.5C 225.167,300.5 223.833,300.5 222.5,300.5C 219.5,299.833 216.5,299.167 213.5,298.5C 206.544,295.355 199.877,291.689 193.5,287.5C 194.499,197.002 194.833,106.335 194.5,15.5C 204.241,9.80685 214.575,5.47352 225.5,2.5 Z"/></g>
<g><path style="opacity:1" fill="#1ea7ea" d="M 286.5,3.5 C 297.809,5.70809 308.143,10.0414 317.5,16.5C 316.508,23.9818 316.175,31.6484 316.5,39.5C 310.675,36.7547 305.008,33.7547 299.5,30.5C 294.5,27.1667 289.5,23.8333 284.5,20.5C 283.883,14.4018 284.55,8.73512 286.5,3.5 Z"/></g>
<g><path style="opacity:0.999" fill="#1ad3fa" d="M 194.5,15.5 C 194.833,106.335 194.499,197.002 193.5,287.5C 186.658,283.578 179.658,279.912 172.5,276.5C 172.5,276.167 172.5,275.833 172.5,275.5C 173.833,234.672 174.5,193.505 174.5,152C 174.5,110.665 174.167,69.4986 173.5,28.5C 180.213,23.8049 187.213,19.4716 194.5,15.5 Z"/></g>
<g><path style="opacity:1" fill="#0dbef3" d="M 281.5,19.5 C 282.391,20.1098 283.391,20.4431 284.5,20.5C 289.5,23.8333 294.5,27.1667 299.5,30.5C 299.5,111.833 299.5,193.167 299.5,274.5C 293.536,278.152 287.536,281.819 281.5,285.5C 281.5,196.833 281.5,108.167 281.5,19.5 Z"/></g>
<g><path style="opacity:1" fill="#279be5" d="M 317.5,16.5 C 329.17,22.6658 340.504,29.3324 351.5,36.5C 349.61,36.7035 348.11,36.0368 347,34.5C 346.5,42.1594 346.334,49.8261 346.5,57.5C 343.366,56.0991 340.366,54.4325 337.5,52.5C 331.127,48.3134 324.461,44.6467 317.5,41.5C 317.167,40.8333 316.833,40.1667 316.5,39.5C 316.175,31.6484 316.508,23.9818 317.5,16.5 Z"/></g>
<g><path style="opacity:1" fill="#11b8f1" d="M 299.5,30.5 C 305.008,33.7547 310.675,36.7547 316.5,39.5C 316.833,40.1667 317.167,40.8333 317.5,41.5C 317.5,115.5 317.5,189.5 317.5,263.5C 312.203,266.819 306.869,270.153 301.5,273.5C 300.833,273.833 300.167,274.167 299.5,274.5C 299.5,193.167 299.5,111.833 299.5,30.5 Z"/></g>
<g><path style="opacity:1" fill="#2d92e2" d="M 351.5,36.5 C 356.343,38.4176 360.677,41.0843 364.5,44.5C 362.535,51.7605 361.868,59.4271 362.5,67.5C 360.167,66.1667 357.833,64.8333 355.5,63.5C 352.291,61.7349 349.291,59.7349 346.5,57.5C 346.334,49.8261 346.5,42.1594 347,34.5C 348.11,36.0368 349.61,36.7035 351.5,36.5 Z"/></g>
<g><path style="opacity:1" fill="#16b1ee" d="M 317.5,41.5 C 324.461,44.6467 331.127,48.3134 337.5,52.5C 337.5,118.833 337.5,185.167 337.5,251.5C 335.343,253.412 333.009,255.079 330.5,256.5C 326.299,259.1 321.966,261.434 317.5,263.5C 317.5,189.5 317.5,115.5 317.5,41.5 Z"/></g>
<g><path style="opacity:0.998" fill="#2fd6fa" d="M 173.5,28.5 C 174.167,69.4986 174.5,110.665 174.5,152C 174.5,193.505 173.833,234.672 172.5,275.5C 160.632,268.737 148.965,261.737 137.5,254.5C 139.497,186.175 140.163,117.508 139.5,48.5C 150.496,41.3324 161.83,34.6658 173.5,28.5 Z"/></g>
<g><path style="opacity:1" fill="#3589de" d="M 364.5,44.5 C 374.431,49.7758 384.098,55.4425 393.5,61.5C 391.535,68.7605 390.868,76.4271 391.5,84.5C 389.287,83.2271 386.954,82.2271 384.5,81.5C 380.005,77.7487 375.005,74.7487 369.5,72.5C 367.381,70.6002 365.047,68.9336 362.5,67.5C 361.868,59.4271 362.535,51.7605 364.5,44.5 Z"/></g>
<g><path style="opacity:1" fill="#1babec" d="M 337.5,52.5 C 340.366,54.4325 343.366,56.0991 346.5,57.5C 349.291,59.7349 352.291,61.7349 355.5,63.5C 355.5,122.833 355.5,182.167 355.5,241.5C 349.473,244.845 343.473,248.179 337.5,251.5C 337.5,185.167 337.5,118.833 337.5,52.5 Z"/></g>
<g><path style="opacity:0.998" fill="#41d9fa" d="M 139.5,48.5 C 140.163,117.508 139.497,186.175 137.5,254.5C 135.5,253.5 133.5,252.5 131.5,251.5C 125.663,248.082 119.996,244.416 114.5,240.5C 114.5,181.5 114.5,122.5 114.5,63.5C 122.566,58.1101 130.9,53.1101 139.5,48.5 Z"/></g>
<g><path style="opacity:1" fill="#3d7ed9" d="M 393.5,61.5 C 403.867,67.0115 413.867,73.0115 423.5,79.5C 421.535,86.7605 420.868,94.4271 421.5,102.5C 419.95,101.559 418.284,100.893 416.5,100.5C 412.005,96.7487 407.005,93.7487 401.5,91.5C 398.167,89.1667 394.833,86.8333 391.5,84.5C 390.868,76.4271 391.535,68.7605 393.5,61.5 Z"/></g>
<g><path style="opacity:1" fill="#20a5e9" d="M 355.5,63.5 C 357.833,64.8333 360.167,66.1667 362.5,67.5C 365.047,68.9336 367.381,70.6002 369.5,72.5C 369.171,125.905 369.505,179.238 370.5,232.5C 367.797,234.181 365.131,235.847 362.5,237.5C 360.031,238.569 357.698,239.902 355.5,241.5C 355.5,182.167 355.5,122.833 355.5,63.5 Z"/></g>
<g><path style="opacity:0.997" fill="#55dcfb" d="M 114.5,63.5 C 114.5,122.5 114.5,181.5 114.5,240.5C 111.86,239.18 109.193,237.847 106.5,236.5C 99.3324,232.417 92.3324,228.084 85.5,223.5C 85.5,175.833 85.5,128.167 85.5,80.5C 94.9944,74.5844 104.661,68.9178 114.5,63.5 Z"/></g>
<g><path style="opacity:1" fill="#249fe7" d="M 369.5,72.5 C 375.005,74.7487 380.005,77.7487 384.5,81.5C 384.5,128.833 384.5,176.167 384.5,223.5C 379.87,226.486 375.203,229.486 370.5,232.5C 369.505,179.238 369.171,125.905 369.5,72.5 Z"/></g>
<g><path style="opacity:1" fill="#2999e4" d="M 384.5,81.5 C 386.954,82.2271 389.287,83.2271 391.5,84.5C 394.833,86.8333 398.167,89.1667 401.5,91.5C 401.5,132.167 401.5,172.833 401.5,213.5C 398.167,215.833 394.833,218.167 391.5,220.5C 389.02,221.242 386.687,222.242 384.5,223.5C 384.5,176.167 384.5,128.833 384.5,81.5 Z"/></g>
<g><path style="opacity:0.996" fill="#65defb" d="M 85.5,80.5 C 85.5,128.167 85.5,175.833 85.5,223.5C 79.4728,220.155 73.4728,216.821 67.5,213.5C 67.5,213.167 67.5,212.833 67.5,212.5C 66.5062,172.239 66.1728,131.906 66.5,91.5C 72.6697,87.5808 79.0031,83.9141 85.5,80.5 Z"/></g>
<g><path style="opacity:1" fill="#476fd4" d="M 423.5,79.5 C 433.174,84.6675 442.508,90.3342 451.5,96.5C 450.417,96.4606 449.417,96.1272 448.5,95.5C 447.202,103.224 447.202,110.891 448.5,118.5C 446.833,117.833 445.167,117.167 443.5,116.5C 439.836,113.665 435.836,111.332 431.5,109.5C 428.167,107.167 424.833,104.833 421.5,102.5C 420.868,94.4271 421.535,86.7605 423.5,79.5 Z"/></g>
<g><path style="opacity:1" fill="#2e92e2" d="M 401.5,91.5 C 407.005,93.7487 412.005,96.7487 416.5,100.5C 416.5,135.167 416.5,169.833 416.5,204.5C 411.784,207.863 406.784,210.863 401.5,213.5C 401.5,172.833 401.5,132.167 401.5,91.5 Z"/></g>
<g><path style="opacity:0.995" fill="#4e66d0" d="M 451.5,96.5 C 467.44,105.139 483.107,114.306 498.5,124C 504.719,129.36 509.053,135.86 511.5,143.5C 511.5,149.167 511.5,154.833 511.5,160.5C 509.2,167.913 505.2,174.413 499.5,180C 486.099,187.691 473.099,195.858 460.5,204.5C 456.251,205.626 452.251,207.293 448.5,209.5C 447.508,202.018 447.175,194.352 447.5,186.5C 470.262,174.046 476.095,156.046 465,132.5C 460.239,126.902 454.739,122.235 448.5,118.5C 447.202,110.891 447.202,103.224 448.5,95.5C 449.417,96.1272 450.417,96.4606 451.5,96.5 Z"/></g>
<g><path style="opacity:0.994" fill="#71e0fb" d="M 66.5,91.5 C 66.1728,131.906 66.5062,172.239 67.5,212.5C 62.1837,209.528 56.8504,206.528 51.5,203.5C 50.5084,203.672 49.8417,203.338 49.5,202.5C 49.5,169.167 49.5,135.833 49.5,102.5C 54.9599,98.5978 60.6266,94.9311 66.5,91.5 Z"/></g>
<g><path style="opacity:1" fill="#328cdf" d="M 416.5,100.5 C 418.284,100.893 419.95,101.559 421.5,102.5C 424.833,104.833 428.167,107.167 431.5,109.5C 431.5,138.167 431.5,166.833 431.5,195.5C 428.167,197.833 424.833,200.167 421.5,202.5C 419.716,202.893 418.05,203.559 416.5,204.5C 416.5,169.833 416.5,135.167 416.5,100.5 Z"/></g>
<g><path style="opacity:0.987" fill="#7de2fc" d="M 49.5,102.5 C 49.5,135.833 49.5,169.167 49.5,202.5C 42.4938,199 35.8272,195 29.5,190.5C 30.4978,165.005 30.8311,139.339 30.5,113.5C 36.5697,109.442 42.903,105.775 49.5,102.5 Z"/></g>
<g><path style="opacity:1" fill="#3686dd" d="M 431.5,109.5 C 435.836,111.332 439.836,113.665 443.5,116.5C 443.5,140.5 443.5,164.5 443.5,188.5C 439.801,191.35 435.801,193.683 431.5,195.5C 431.5,166.833 431.5,138.167 431.5,109.5 Z"/></g>
<g><path style="opacity:1" fill="#3b80da" d="M 443.5,116.5 C 445.167,117.167 446.833,117.833 448.5,118.5C 454.739,122.235 460.239,126.902 465,132.5C 476.095,156.046 470.262,174.046 447.5,186.5C 446.167,187.167 444.833,187.833 443.5,188.5C 443.5,164.5 443.5,140.5 443.5,116.5 Z"/></g>
<g><path style="opacity:0.983" fill="#8ce4fc" d="M 30.5,113.5 C 30.8311,139.339 30.4978,165.005 29.5,190.5C 18.4778,186.242 9.64442,179.242 3,169.5C 2.05751,166.626 0.890847,163.96 -0.5,161.5C -0.5,155.5 -0.5,149.5 -0.5,143.5C 1.94738,135.86 6.28072,129.36 12.5,124C 18.3635,120.236 24.3635,116.736 30.5,113.5 Z"/></g>
<g><path style="opacity:1" fill="#4671d4" d="M 447.5,186.5 C 447.175,194.352 447.508,202.018 448.5,209.5C 439.705,215.403 430.705,221.069 421.5,226.5C 421.5,218.5 421.5,210.5 421.5,202.5C 424.833,200.167 428.167,197.833 431.5,195.5C 435.801,193.683 439.801,191.35 443.5,188.5C 444.833,187.833 446.167,187.167 447.5,186.5 Z"/></g>
<g><path style="opacity:0.998" fill="#5b3374" d="M 460.5,204.5 C 473.304,211.737 485.971,219.237 498.5,227C 504.719,232.36 509.053,238.86 511.5,246.5C 511.5,252.5 511.5,258.5 511.5,264.5C 508.827,271.984 504.494,278.484 498.5,284C 485.602,291.608 472.935,299.441 460.5,307.5C 458.692,307.491 457.025,307.991 455.5,309C 408.775,337.36 361.775,365.193 314.5,392.5C 313.508,385.018 313.175,377.352 313.5,369.5C 325.204,362.987 336.538,355.987 347.5,348.5C 359.302,342.098 370.969,335.431 382.5,328.5C 396.369,320.403 410.036,312.07 423.5,303.5C 437.242,296.547 450.076,288.213 462,278.5C 468.544,263.566 464.711,252.066 450.5,244C 440.118,240.744 431.118,242.911 423.5,250.5C 409.162,258.333 395.162,266.666 381.5,275.5C 369.328,281.749 357.661,288.749 346.5,296.5C 336.833,301.833 327.167,307.167 317.5,312.5C 317.825,304.648 317.492,296.982 316.5,289.5C 321.167,286.5 325.833,283.5 330.5,280.5C 341.167,274.167 351.833,267.833 362.5,261.5C 372.002,255.581 381.669,249.914 391.5,244.5C 401.5,238.5 411.5,232.5 421.5,226.5C 430.705,221.069 439.705,215.403 448.5,209.5C 452.251,207.293 456.251,205.626 460.5,204.5 Z"/></g>
<g><path style="opacity:1" fill="#c677b7" d="M 51.5,203.5 C 56.8504,206.528 62.1837,209.528 67.5,212.5C 67.5,212.833 67.5,213.167 67.5,213.5C 66.1871,221.401 66.1871,229.401 67.5,237.5C 59.2578,233.26 51.2578,228.593 43.5,223.5C 39.1957,221.533 35.5291,218.867 32.5,215.5C 38.6645,211.25 44.9979,207.25 51.5,203.5 Z"/></g>
<g><path style="opacity:1" fill="#3d7dd8" d="M 421.5,202.5 C 421.5,210.5 421.5,218.5 421.5,226.5C 411.5,232.5 401.5,238.5 391.5,244.5C 391.5,236.5 391.5,228.5 391.5,220.5C 394.833,218.167 398.167,215.833 401.5,213.5C 406.784,210.863 411.784,207.863 416.5,204.5C 418.05,203.559 419.716,202.893 421.5,202.5 Z"/></g>
<g><path style="opacity:0.994" fill="#f08cba" d="M 32.5,215.5 C 35.5291,218.867 39.1957,221.533 43.5,223.5C 43.8237,249.574 43.4904,275.574 42.5,301.5C 37.2329,298.89 32.2329,295.89 27.5,292.5C 27.5,267.833 27.5,243.167 27.5,218.5C 28.8993,217.11 30.5659,216.11 32.5,215.5 Z"/></g>
<g><path style="opacity:0.99" fill="#f78fba" d="M 27.5,218.5 C 27.5,243.167 27.5,267.833 27.5,292.5C 13.7752,287.442 4.4419,278.109 -0.5,264.5C -0.5,258.5 -0.5,252.5 -0.5,246.5C 4.4419,232.891 13.7752,223.558 27.5,218.5 Z"/></g>
<g><path style="opacity:1" fill="#b56eb6" d="M 67.5,213.5 C 73.4728,216.821 79.4728,220.155 85.5,223.5C 92.3324,228.084 99.3324,232.417 106.5,236.5C 105.508,244.316 105.174,252.316 105.5,260.5C 96.407,254.739 87.0736,249.406 77.5,244.5C 74.1667,242.167 70.8333,239.833 67.5,237.5C 66.1871,229.401 66.1871,221.401 67.5,213.5 Z"/></g>
<g><path style="opacity:1" fill="#348ade" d="M 391.5,220.5 C 391.5,228.5 391.5,236.5 391.5,244.5C 381.669,249.914 372.002,255.581 362.5,261.5C 362.5,253.5 362.5,245.5 362.5,237.5C 365.131,235.847 367.797,234.181 370.5,232.5C 375.203,229.486 379.87,226.486 384.5,223.5C 386.687,222.242 389.02,221.242 391.5,220.5 Z"/></g>
<g><path style="opacity:1" fill="#e586b9" d="M 43.5,223.5 C 51.2578,228.593 59.2578,233.26 67.5,237.5C 70.8333,239.833 74.1667,242.167 77.5,244.5C 77.5,270.167 77.5,295.833 77.5,321.5C 76.391,321.443 75.391,321.11 74.5,320.5C 67.3278,315.411 59.6612,311.077 51.5,307.5C 48.328,305.748 45.328,303.748 42.5,301.5C 43.4904,275.574 43.8237,249.574 43.5,223.5 Z"/></g>
<g><path style="opacity:1" fill="#a767b5" d="M 106.5,236.5 C 109.193,237.847 111.86,239.18 114.5,240.5C 119.996,244.416 125.663,248.082 131.5,251.5C 130.508,259.316 130.174,267.316 130.5,275.5C 123.635,271.235 116.635,267.235 109.5,263.5C 108.205,262.512 106.872,261.512 105.5,260.5C 105.174,252.316 105.508,244.316 106.5,236.5 Z"/></g>
<g><path style="opacity:1" fill="#6c4088" d="M 423.5,303.5 C 423.5,285.833 423.5,268.167 423.5,250.5C 431.118,242.911 440.118,240.744 450.5,244C 464.711,252.066 468.544,263.566 462,278.5C 450.076,288.213 437.242,296.547 423.5,303.5 Z"/></g>
<g><path style="opacity:1" fill="#2b96e3" d="M 362.5,237.5 C 362.5,245.5 362.5,253.5 362.5,261.5C 351.833,267.833 341.167,274.167 330.5,280.5C 330.5,272.5 330.5,264.5 330.5,256.5C 333.009,255.079 335.343,253.412 337.5,251.5C 343.473,248.179 349.473,244.845 355.5,241.5C 357.698,239.902 360.031,238.569 362.5,237.5 Z"/></g>
<g><path style="opacity:1" fill="#d980b8" d="M 77.5,244.5 C 87.0736,249.406 96.407,254.739 105.5,260.5C 106.872,261.512 108.205,262.512 109.5,263.5C 109.5,289.167 109.5,314.833 109.5,340.5C 98.4951,334.667 87.8285,328.334 77.5,321.5C 77.5,295.833 77.5,270.167 77.5,244.5 Z"/></g>
<g><path style="opacity:1" fill="#22a2e8" d="M 330.5,256.5 C 330.5,264.5 330.5,272.5 330.5,280.5C 325.833,283.5 321.167,286.5 316.5,289.5C 311.615,292.02 306.615,294.354 301.5,296.5C 301.5,288.833 301.5,281.167 301.5,273.5C 306.869,270.153 312.203,266.819 317.5,263.5C 321.966,261.434 326.299,259.1 330.5,256.5 Z"/></g>
<g><path style="opacity:1" fill="#955eb3" d="M 131.5,251.5 C 133.5,252.5 135.5,253.5 137.5,254.5C 148.965,261.737 160.632,268.737 172.5,275.5C 172.5,275.833 172.5,276.167 172.5,276.5C 172.5,284.5 172.5,292.5 172.5,300.5C 163.407,294.739 154.074,289.406 144.5,284.5C 139.87,281.514 135.203,278.514 130.5,275.5C 130.174,267.316 130.508,259.316 131.5,251.5 Z"/></g>
<g><path style="opacity:1" fill="#764794" d="M 423.5,250.5 C 423.5,268.167 423.5,285.833 423.5,303.5C 410.036,312.07 396.369,320.403 382.5,328.5C 382.83,310.659 382.497,292.992 381.5,275.5C 395.162,266.666 409.162,258.333 423.5,250.5 Z"/></g>
<g><path style="opacity:1" fill="#cc79b7" d="M 109.5,263.5 C 116.635,267.235 123.635,271.235 130.5,275.5C 135.203,278.514 139.87,281.514 144.5,284.5C 144.5,310.167 144.5,335.833 144.5,361.5C 138.527,358.179 132.527,354.845 126.5,351.5C 120.663,348.082 114.996,344.416 109.5,340.5C 109.5,314.833 109.5,289.167 109.5,263.5 Z"/></g>
<g><path style="opacity:1" fill="#7e4d9d" d="M 381.5,275.5 C 382.497,292.992 382.83,310.659 382.5,328.5C 370.969,335.431 359.302,342.098 347.5,348.5C 347.83,330.992 347.497,313.659 346.5,296.5C 357.661,288.749 369.328,281.749 381.5,275.5 Z"/></g>
<g><path style="opacity:1" fill="#19afec" d="M 301.5,273.5 C 301.5,281.167 301.5,288.833 301.5,296.5C 295.028,299.101 288.361,301.101 281.5,302.5C 270.662,305.001 259.662,306.001 248.5,305.5C 244.295,305.283 240.295,304.617 236.5,303.5C 245.203,301.909 253.536,299.243 261.5,295.5C 268.408,292.713 275.075,289.379 281.5,285.5C 287.536,281.819 293.536,278.152 299.5,274.5C 300.167,274.167 300.833,273.833 301.5,273.5 Z"/></g>
<g><path style="opacity:1" fill="#8754a8" d="M 172.5,276.5 C 179.658,279.912 186.658,283.578 193.5,287.5C 199.877,291.689 206.544,295.355 213.5,298.5C 212.187,306.401 212.187,314.401 213.5,322.5C 212.391,322.443 211.391,322.11 210.5,321.5C 198.381,315.942 186.714,309.608 175.5,302.5C 174.5,301.833 173.5,301.167 172.5,300.5C 172.5,292.5 172.5,284.5 172.5,276.5 Z"/></g>
<g><path style="opacity:1" fill="#c073b6" d="M 144.5,284.5 C 154.074,289.406 163.407,294.739 172.5,300.5C 173.5,301.167 174.5,301.833 175.5,302.5C 175.5,328.5 175.5,354.5 175.5,380.5C 164.964,374.403 154.63,368.07 144.5,361.5C 144.5,335.833 144.5,310.167 144.5,284.5 Z"/></g>
<g><path style="opacity:1" fill="#693d84" d="M 316.5,289.5 C 317.492,296.982 317.825,304.648 317.5,312.5C 315.343,314.412 313.009,316.079 310.5,317.5C 301.563,321.701 292.23,324.701 282.5,326.5C 281.508,318.684 281.174,310.684 281.5,302.5C 288.361,301.101 295.028,299.101 301.5,296.5C 306.615,294.354 311.615,292.02 316.5,289.5 Z"/></g>
<g><path style="opacity:1" fill="#7c4c9b" d="M 213.5,298.5 C 216.5,299.167 219.5,299.833 222.5,300.5C 226.857,302.419 231.523,303.419 236.5,303.5C 240.295,304.617 244.295,305.283 248.5,305.5C 248.5,313.5 248.5,321.5 248.5,329.5C 253.833,329.5 259.167,329.5 264.5,329.5C 257.296,330.78 249.962,330.78 242.5,329.5C 232.462,328.574 222.796,326.24 213.5,322.5C 212.187,314.401 212.187,306.401 213.5,298.5 Z"/></g>
<g><path style="opacity:1" fill="#734590" d="M 281.5,302.5 C 281.174,310.684 281.508,318.684 282.5,326.5C 280.786,327.738 278.786,328.405 276.5,328.5C 272.519,329.021 268.519,329.354 264.5,329.5C 259.167,329.5 253.833,329.5 248.5,329.5C 248.5,321.5 248.5,313.5 248.5,305.5C 259.662,306.001 270.662,305.001 281.5,302.5 Z"/></g>
<g><path style="opacity:0.998" fill="#d2024e" d="M 460.5,307.5 C 473.472,315.322 486.472,323.155 499.5,331C 504.919,336.362 508.919,342.528 511.5,349.5C 511.5,355.5 511.5,361.5 511.5,367.5C 508.379,377.801 502.046,385.635 492.5,391C 431.943,427.108 371.276,462.942 310.5,498.5C 309.5,498.5 308.5,498.5 307.5,498.5C 307.5,491.167 307.5,483.833 307.5,476.5C 310.131,474.847 312.797,473.181 315.5,471.5C 325.37,465.736 335.037,459.736 344.5,453.5C 354.839,448 364.839,442 374.5,435.5C 384.839,430 394.839,424 404.5,417.5C 421.772,408.195 438.772,398.362 455.5,388C 468.608,375.213 468.608,362.547 455.5,350C 445.641,343.686 435.975,344.019 426.5,351C 418.769,355.858 411.102,360.691 403.5,365.5C 393.161,371 383.161,377 373.5,383.5C 363.161,389 353.161,395 343.5,401.5C 333.569,406.776 323.902,412.442 314.5,418.5C 312.5,419.167 310.5,419.833 308.5,420.5C 307.508,413.018 307.175,405.352 307.5,397.5C 310.009,396.079 312.343,394.412 314.5,392.5C 361.775,365.193 408.775,337.36 455.5,309C 457.025,307.991 458.692,307.491 460.5,307.5 Z"/></g>
<g><path style="opacity:1" fill="#fd386a" d="M 51.5,307.5 C 59.6612,311.077 67.3278,315.411 74.5,320.5C 73.5076,328.316 73.1743,336.316 73.5,344.5C 73.1667,344.5 72.8333,344.5 72.5,344.5C 65.7036,339.93 58.7036,335.597 51.5,331.5C 44.7976,327.485 38.1309,323.485 31.5,319.5C 37.8272,315 44.4938,311 51.5,307.5 Z"/></g>
<g><path style="opacity:1" fill="#b46db5" d="M 175.5,302.5 C 186.714,309.608 198.381,315.942 210.5,321.5C 210.5,347.5 210.5,373.5 210.5,399.5C 202.681,396.09 195.014,392.423 187.5,388.5C 183.795,385.474 179.795,382.808 175.5,380.5C 175.5,354.5 175.5,328.5 175.5,302.5 Z"/></g>
<g><path style="opacity:1" fill="#8854a8" d="M 346.5,296.5 C 347.497,313.659 347.83,330.992 347.5,348.5C 336.538,355.987 325.204,362.987 313.5,369.5C 312.5,370.167 311.5,370.833 310.5,371.5C 310.5,353.5 310.5,335.5 310.5,317.5C 313.009,316.079 315.343,314.412 317.5,312.5C 327.167,307.167 336.833,301.833 346.5,296.5 Z"/></g>
<g><path style="opacity:0.994" fill="#fe5a6d" d="M 31.5,319.5 C 38.1309,323.485 44.7976,327.485 51.5,331.5C 51.8311,357.672 51.4978,383.672 50.5,409.5C 41.9652,404.737 33.6319,399.737 25.5,394.5C 26.4976,370.672 26.8309,346.672 26.5,322.5C 27.6594,320.75 29.326,319.75 31.5,319.5 Z"/></g>
<g><path style="opacity:0.98" fill="#fe606e" d="M 26.5,322.5 C 26.8309,346.672 26.4976,370.672 25.5,394.5C 12.7103,389.379 4.04363,380.379 -0.5,367.5C -0.5,361.5 -0.5,355.5 -0.5,349.5C 4.10836,336.225 13.1084,327.225 26.5,322.5 Z"/></g>
<g><path style="opacity:1" fill="#905ab1" d="M 310.5,317.5 C 310.5,335.5 310.5,353.5 310.5,371.5C 300.669,376.914 291.002,382.581 281.5,388.5C 279.999,389.752 278.332,390.752 276.5,391.5C 276.5,370.5 276.5,349.5 276.5,328.5C 278.786,328.405 280.786,327.738 282.5,326.5C 292.23,324.701 301.563,321.701 310.5,317.5 Z"/></g>
<g><path style="opacity:1" fill="#a766b5" d="M 210.5,321.5 C 211.391,322.11 212.391,322.443 213.5,322.5C 222.796,326.24 232.462,328.574 242.5,329.5C 242.823,354.908 242.49,380.241 241.5,405.5C 239.007,405.131 238.34,405.797 239.5,407.5C 229.421,406.231 219.754,403.564 210.5,399.5C 210.5,373.5 210.5,347.5 210.5,321.5 Z"/></g>
<g><path style="opacity:1" fill="#9d61b4" d="M 276.5,328.5 C 276.5,349.5 276.5,370.5 276.5,391.5C 265.647,398.089 253.98,402.756 241.5,405.5C 242.49,380.241 242.823,354.908 242.5,329.5C 249.962,330.78 257.296,330.78 264.5,329.5C 268.519,329.354 272.519,329.021 276.5,328.5 Z"/></g>
<g><path style="opacity:0.995" fill="#fe546d" d="M 51.5,331.5 C 58.7036,335.597 65.7036,339.93 72.5,344.5C 72.8237,370.574 72.4904,396.574 71.5,422.5C 64.2964,418.403 57.2964,414.07 50.5,409.5C 51.4978,383.672 51.8311,357.672 51.5,331.5 Z"/></g>
<g><path style="opacity:1" fill="#fd2368" d="M 74.5,320.5 C 75.391,321.11 76.391,321.443 77.5,321.5C 87.8285,328.334 98.4951,334.667 109.5,340.5C 114.996,344.416 120.663,348.082 126.5,351.5C 125.508,359.316 125.174,367.316 125.5,375.5C 120.833,372.833 116.167,370.167 111.5,367.5C 105.5,363.833 99.5,360.167 93.5,356.5C 86.8333,352.5 80.1667,348.5 73.5,344.5C 73.1743,336.316 73.5076,328.316 74.5,320.5 Z"/></g>
<g><path style="opacity:0.994" fill="#fe4d6c" d="M 72.5,344.5 C 72.8333,344.5 73.1667,344.5 73.5,344.5C 80.1667,348.5 86.8333,352.5 93.5,356.5C 93.8311,382.672 93.4978,408.672 92.5,434.5C 85.3646,430.765 78.3646,426.765 71.5,422.5C 72.4904,396.574 72.8237,370.574 72.5,344.5 Z"/></g>
<g><path style="opacity:1" fill="#e20256" d="M 404.5,417.5 C 404.83,399.992 404.497,382.659 403.5,365.5C 411.102,360.691 418.769,355.858 426.5,351C 435.975,344.019 445.641,343.686 455.5,350C 468.608,362.547 468.608,375.213 455.5,388C 438.772,398.362 421.772,408.195 404.5,417.5 Z"/></g>
<g><path style="opacity:0.995" fill="#fe476b" d="M 93.5,356.5 C 99.5,360.167 105.5,363.833 111.5,367.5C 111.5,393.5 111.5,419.5 111.5,445.5C 104.903,442.225 98.5697,438.558 92.5,434.5C 93.4978,408.672 93.8311,382.672 93.5,356.5 Z"/></g>
<g><path style="opacity:1" fill="#ea025a" d="M 403.5,365.5 C 404.497,382.659 404.83,399.992 404.5,417.5C 394.839,424 384.839,430 374.5,435.5C 374.83,417.992 374.497,400.659 373.5,383.5C 383.161,377 393.161,371 403.5,365.5 Z"/></g>
<g><path style="opacity:0.996" fill="#fe416a" d="M 111.5,367.5 C 116.167,370.167 120.833,372.833 125.5,375.5C 126.833,376.5 128.167,377.5 129.5,378.5C 130.157,404.522 129.491,430.188 127.5,455.5C 121.794,452.653 116.461,449.32 111.5,445.5C 111.5,419.5 111.5,393.5 111.5,367.5 Z"/></g>
<g><path style="opacity:1" fill="#683c82" d="M 313.5,369.5 C 313.175,377.352 313.508,385.018 314.5,392.5C 312.343,394.412 310.009,396.079 307.5,397.5C 300.018,400.438 292.351,402.772 284.5,404.5C 283.5,404.5 282.5,404.5 281.5,404.5C 281.5,399.167 281.5,393.833 281.5,388.5C 291.002,382.581 300.669,376.914 310.5,371.5C 311.5,370.833 312.5,370.167 313.5,369.5 Z"/></g>
<g><path style="opacity:1" fill="#fd0a64" d="M 126.5,351.5 C 132.527,354.845 138.527,358.179 144.5,361.5C 154.63,368.07 164.964,374.403 175.5,380.5C 179.795,382.808 183.795,385.474 187.5,388.5C 187.5,396.5 187.5,404.5 187.5,412.5C 181.5,409.167 175.5,405.833 169.5,402.5C 156.534,394.011 143.201,386.011 129.5,378.5C 128.167,377.5 126.833,376.5 125.5,375.5C 125.174,367.316 125.508,359.316 126.5,351.5 Z"/></g>
<g><path style="opacity:1" fill="#ef025d" d="M 373.5,383.5 C 374.497,400.659 374.83,417.992 374.5,435.5C 364.839,442 354.839,448 344.5,453.5C 344.83,435.992 344.497,418.659 343.5,401.5C 353.161,395 363.161,389 373.5,383.5 Z"/></g>
<g><path style="opacity:1" fill="#73438e" d="M 281.5,388.5 C 281.5,393.833 281.5,399.167 281.5,404.5C 282.5,404.5 283.5,404.5 284.5,404.5C 275.837,407.211 266.837,408.544 257.5,408.5C 251.455,408.697 245.455,408.363 239.5,407.5C 238.34,405.797 239.007,405.131 241.5,405.5C 253.98,402.756 265.647,398.089 276.5,391.5C 278.332,390.752 279.999,389.752 281.5,388.5 Z"/></g>
<g><path style="opacity:0.996" fill="#fe3669" d="M 129.5,378.5 C 143.201,386.011 156.534,394.011 169.5,402.5C 169.5,428.5 169.5,454.5 169.5,480.5C 155.134,472.656 141.134,464.322 127.5,455.5C 129.491,430.188 130.157,404.522 129.5,378.5 Z"/></g>
<g><path style="opacity:1" fill="#f60260" d="M 343.5,401.5 C 344.497,418.659 344.83,435.992 344.5,453.5C 335.037,459.736 325.37,465.736 315.5,471.5C 315.83,453.659 315.497,435.992 314.5,418.5C 323.902,412.442 333.569,406.776 343.5,401.5 Z"/></g>
<g><path style="opacity:1" fill="#f0035d" d="M 187.5,388.5 C 195.014,392.423 202.681,396.09 210.5,399.5C 219.754,403.564 229.421,406.231 239.5,407.5C 245.455,408.363 251.455,408.697 257.5,408.5C 257.5,416.5 257.5,424.5 257.5,432.5C 260.167,432.5 262.833,432.5 265.5,432.5C 255.991,433.636 246.324,433.636 236.5,432.5C 224.875,430.036 213.542,426.37 202.5,421.5C 197.299,418.737 192.299,415.737 187.5,412.5C 187.5,404.5 187.5,396.5 187.5,388.5 Z"/></g>
<g><path style="opacity:1" fill="#e10256" d="M 307.5,397.5 C 307.175,405.352 307.508,413.018 308.5,420.5C 295.069,427.443 280.735,431.443 265.5,432.5C 262.833,432.5 260.167,432.5 257.5,432.5C 257.5,424.5 257.5,416.5 257.5,408.5C 266.837,408.544 275.837,407.211 284.5,404.5C 292.351,402.772 300.018,400.438 307.5,397.5 Z"/></g>
<g><path style="opacity:0.995" fill="#fe2a68" d="M 169.5,402.5 C 175.5,405.833 181.5,409.167 187.5,412.5C 192.299,415.737 197.299,418.737 202.5,421.5C 202.5,447.5 202.5,473.5 202.5,499.5C 191.002,493.921 180.002,487.588 169.5,480.5C 169.5,454.5 169.5,428.5 169.5,402.5 Z"/></g>
<g><path style="opacity:0.995" fill="#fd1e67" d="M 202.5,421.5 C 213.542,426.37 224.875,430.036 236.5,432.5C 236.5,458.167 236.5,483.833 236.5,509.5C 235.833,509.5 235.5,509.833 235.5,510.5C 223.81,508.603 212.81,504.937 202.5,499.5C 202.5,473.5 202.5,447.5 202.5,421.5 Z"/></g>
<g><path style="opacity:1" fill="#fd0d64" d="M 314.5,418.5 C 315.497,435.992 315.83,453.659 315.5,471.5C 312.797,473.181 310.131,474.847 307.5,476.5C 293.519,485.161 279.186,493.327 264.5,501C 255.472,505.033 246.139,507.867 236.5,509.5C 236.5,483.833 236.5,458.167 236.5,432.5C 246.324,433.636 255.991,433.636 265.5,432.5C 280.735,431.443 295.069,427.443 308.5,420.5C 310.5,419.833 312.5,419.167 314.5,418.5 Z"/></g>
<g><path style="opacity:1" fill="#e20256" d="M 307.5,476.5 C 307.5,483.833 307.5,491.167 307.5,498.5C 308.5,498.5 309.5,498.5 310.5,498.5C 297.93,505.246 284.596,509.579 270.5,511.5C 260.167,511.5 249.833,511.5 239.5,511.5C 238.432,510.566 237.099,510.232 235.5,510.5C 235.5,509.833 235.833,509.5 236.5,509.5C 246.139,507.867 255.472,505.033 264.5,501C 279.186,493.327 293.519,485.161 307.5,476.5 Z"/></g>
</svg>
