<?xml version="1.0" encoding="UTF-8"?>
<!DOCTYPE svg PUBLIC "-//W3C//DTD SVG 1.1//EN" "http://www.w3.org/Graphics/SVG/1.1/DTD/svg11.dtd">
<svg xmlns="http://www.w3.org/2000/svg" version="1.1" width="512px" height="512px" style="shape-rendering:geometricPrecision; text-rendering:geometricPrecision; image-rendering:optimizeQuality; fill-rule:evenodd; clip-rule:evenodd" xmlns:xlink="http://www.w3.org/1999/xlink">
<g><path style="opacity:0.977" fill="#000000" d="M 416.5,20.5 C 451.806,17.7157 475.639,32.7157 488,65.5C 494.74,91.3769 488.907,113.877 470.5,133C 443.77,153.286 416.103,154.62 387.5,137C 377.145,129.118 370.145,118.951 366.5,106.5C 288.833,106.333 211.166,106.5 133.5,107C 108.724,108.969 88.5573,119.469 73,138.5C 54.6434,180.761 66.8101,210.594 109.5,228C 116.388,230.139 123.388,231.805 130.5,233C 214.167,233.333 297.833,233.667 381.5,234C 423.664,237.815 456.164,257.315 479,292.5C 492.36,320.452 494.026,349.118 484,378.5C 466.979,414.62 438.812,436.787 399.5,445C 395.531,445.853 391.531,446.519 387.5,447C 306.833,447.333 226.167,447.667 145.5,448C 134.678,475.338 114.511,489.505 85,490.5C 53.9073,489.726 33.2406,474.726 23,445.5C 15.6728,416.822 23.1728,392.989 45.5,374C 74.7175,356.04 102.717,357.706 129.5,379C 136.698,386.233 141.698,394.733 144.5,404.5C 222.167,404.667 299.834,404.5 377.5,404C 402.271,402.034 422.438,391.534 438,372.5C 456.36,330.252 444.194,300.419 401.5,283C 394.684,280.57 387.684,278.903 380.5,278C 296.833,277.667 213.167,277.333 129.5,277C 88.3213,273.174 56.1547,254.34 33,220.5C 18.7139,192.036 16.7139,162.702 27,132.5C 40.1047,103.396 61.6047,83.229 91.5,72C 101.551,68.2373 111.884,65.5706 122.5,64C 203.5,63.6667 284.5,63.3333 365.5,63C 374.726,39.4016 391.726,25.235 416.5,20.5 Z M 425.5,63.5 C 444.583,66.9844 450.75,77.9844 444,96.5C 435.297,106.203 425.131,108.037 413.5,102C 404.71,93.3428 403.21,83.5095 409,72.5C 413.248,66.9635 418.748,63.9635 425.5,63.5 Z M 79.5,405.5 C 97.9802,404.48 106.48,413.146 105,431.5C 99.4391,445.461 89.6057,449.961 75.5,445C 65.7939,439.246 62.2939,430.746 65,419.5C 67.7486,412.583 72.5819,407.917 79.5,405.5 Z"/></g>
</svg>
